<?xml version="1.0" encoding="UTF-8"?>
<svg version="1.1" xmlns="http://www.w3.org/2000/svg" width="180" height="180">
<path d="M0 0 C0.87269531 -0.01224609 1.74539062 -0.02449219 2.64453125 -0.03710938 C7.85031153 -0.04885174 12.14443796 0.50567514 17.125 2.1875 C18.27742188 2.5175 19.42984375 2.8475 20.6171875 3.1875 C21.73351562 3.5175 22.84984375 3.8475 24 4.1875 C25.13179688 4.5175 26.26359375 4.8475 27.4296875 5.1875 C30.125 6.1875 30.125 6.1875 31.125 8.1875 C32.45407873 8.53741232 33.78843315 8.86737822 35.125 9.1875 C36.73090715 9.99842994 38.31441006 10.85495577 39.875 11.75 C40.67421875 12.20503906 41.4734375 12.66007812 42.296875 13.12890625 C42.90015625 13.47824219 43.5034375 13.82757813 44.125 14.1875 C44.125 14.8475 44.125 15.5075 44.125 16.1875 C45.115 16.1875 46.105 16.1875 47.125 16.1875 C48.93896948 17.79415869 50.50494194 19.39580788 52.125 21.1875 C52.73730469 21.84234375 53.34960938 22.4971875 53.98046875 23.171875 C67.125 37.51136364 67.125 37.51136364 67.125 44.1875 C67.785 44.1875 68.445 44.1875 69.125 44.1875 C69.86345 46.63423099 70.59878929 49.0817829 71.328125 51.53125 C71.95156952 53.60939841 72.59665013 55.68105876 73.25 57.75 C77.49835225 74.43995526 74.17667774 93.61504499 67.125 109.1875 C65.83774093 110.89000393 64.50368281 112.55814759 63.125 114.1875 C62.43814509 115.36343836 61.77231132 116.55183943 61.125 117.75 C59.32266328 120.84776624 57.74801617 122.81039159 55.125 125.1875 C54.42375 125.93 53.7225 126.6725 53 127.4375 C51.125 129.1875 51.125 129.1875 49.125 129.1875 C49.125 129.8475 49.125 130.5075 49.125 131.1875 C48.465 131.1875 47.805 131.1875 47.125 131.1875 C46.795 131.8475 46.465 132.5075 46.125 133.1875 C44.46220673 134.1939275 42.79516516 135.19335407 41.125 136.1875 C40.58875 136.744375 40.0525 137.30125 39.5 137.875 C38.125 139.1875 38.125 139.1875 35.125 139.1875 C34.795 139.8475 34.465 140.5075 34.125 141.1875 C33.465 141.5175 32.805 141.8475 32.125 142.1875 C31.465 141.8575 30.805 141.5275 30.125 141.1875 C30.125 141.8475 30.125 142.5075 30.125 143.1875 C28.69166979 143.57813507 27.25307321 143.94948474 25.8125 144.3125 C24.61173828 144.62574219 24.61173828 144.62574219 23.38671875 144.9453125 C21.125 145.1875 21.125 145.1875 18.125 143.1875 C18.125 142.5275 18.125 141.8675 18.125 141.1875 C17.465 141.1875 16.805 141.1875 16.125 141.1875 C16.13285522 139.81815308 16.13285522 139.81815308 16.14086914 138.42114258 C16.15795631 135.01993167 16.1704722 131.61876669 16.17993164 128.2175293 C16.18494669 126.74812091 16.19176033 125.27871748 16.20043945 123.80932617 C16.21262928 121.69188205 16.21825669 119.57450417 16.22265625 117.45703125 C16.23051147 115.54821167 16.23051147 115.54821167 16.23852539 113.60083008 C16.14039606 110.6504081 15.81563835 108.04803325 15.125 105.1875 C16.775 105.5175 18.425 105.8475 20.125 106.1875 C20.455 105.5275 20.785 104.8675 21.125 104.1875 C23.12890625 103.51171875 23.12890625 103.51171875 25.6875 102.875 C30.72702876 101.45582236 35.00550959 99.44652244 39.125 96.1875 C39.455 95.5275 39.785 94.8675 40.125 94.1875 C40.785 94.1875 41.445 94.1875 42.125 94.1875 C42.125 93.5275 42.125 92.8675 42.125 92.1875 C42.785 92.1875 43.445 92.1875 44.125 92.1875 C44.5271875 90.888125 44.5271875 90.888125 44.9375 89.5625 C46.125 86.1875 46.125 86.1875 47.6875 83.3125 C51.52014112 74.98067148 49.64966636 66.92822427 48.125 58.1875 C47.97804688 57.24261719 47.83109375 56.29773438 47.6796875 55.32421875 C47.49664062 54.61910156 47.31359375 53.91398437 47.125 53.1875 C46.465 52.8575 45.805 52.5275 45.125 52.1875 C42.10723778 48.65240711 41.07095962 47.02512592 41.375 42.3125 C41.50003906 41.63960937 41.62507813 40.96671875 41.75390625 40.2734375 C42.50320328 36.06159945 42.70994238 31.81698234 41.25 27.75 C40.19425899 26.02856726 40.19425899 26.02856726 38.125 25.1875 C31.87045633 26.63855413 25.36929685 29.0582953 20.6875 33.5 C19.841875 34.056875 18.99625 34.61375 18.125 35.1875 C16.49220478 34.71100334 14.86101361 34.22790363 13.2409668 33.7097168 C9.13826245 32.69717675 4.95218321 32.90148129 0.75 32.9375 C-0.14460938 32.92976563 -1.03921875 32.92203125 -1.9609375 32.9140625 C-7.88629531 32.93128738 -13.1350628 33.71452223 -18.875 35.1875 C-19.349375 34.445 -19.82375 33.7025 -20.3125 32.9375 C-25.59698352 27.26634695 -32.35995579 25.73404867 -39.875 25.1875 C-41.31488773 32.02696671 -42.27107503 39.81985932 -38.875 46.1875 C-40.0815625 47.54875 -40.0815625 47.54875 -41.3125 48.9375 C-43.28642671 51.29059908 -44.51377467 53.05688046 -44.875 56.1875 C-45.535 56.1875 -46.195 56.1875 -46.875 56.1875 C-46.875 57.8375 -46.875 59.4875 -46.875 61.1875 C-47.535 61.1875 -48.195 61.1875 -48.875 61.1875 C-49.32222447 71.60617372 -48.8900363 81.30816071 -42.875 90.1875 C-42.875 90.8475 -42.875 91.5075 -42.875 92.1875 C-42.215 92.1875 -41.555 92.1875 -40.875 92.1875 C-39.18737149 93.8329378 -37.5209651 95.50038577 -35.875 97.1875 C-34.885 97.6825 -34.885 97.6825 -33.875 98.1875 C-33.875 98.8475 -33.875 99.5075 -33.875 100.1875 C-31.235 100.8475 -28.595 101.5075 -25.875 102.1875 C-25.875 102.8475 -25.875 103.5075 -25.875 104.1875 C-24.885 103.8575 -23.895 103.5275 -22.875 103.1875 C-20.61328125 103.74609375 -20.61328125 103.74609375 -18.1875 104.625 C-16.97513672 105.05619141 -16.97513672 105.05619141 -15.73828125 105.49609375 C-15.12339844 105.72425781 -14.50851563 105.95242187 -13.875 106.1875 C-13.875 107.5075 -13.875 108.8275 -13.875 110.1875 C-14.535 110.1875 -15.195 110.1875 -15.875 110.1875 C-15.38 113.6525 -15.38 113.6525 -14.875 117.1875 C-20.14874646 120.19425137 -25.39476053 119.74906365 -31.1875 118.4375 C-34.11664642 117.07510632 -35.75966182 115.60502935 -37.875 113.1875 C-38.865 112.1975 -38.865 112.1975 -39.875 111.1875 C-40.865 110.1975 -40.865 110.1975 -41.875 109.1875 C-41.875 108.1975 -41.875 107.2075 -41.875 106.1875 C-46.85406259 105.43322703 -46.85406259 105.43322703 -51.875 105.1875 C-51.070625 105.620625 -50.26625 106.05375 -49.4375 106.5 C-46.875 108.1875 -46.875 108.1875 -45.875 111.1875 C-45.38 111.620625 -44.885 112.05375 -44.375 112.5 C-42.875 114.1875 -42.875 114.1875 -42.4375 117.25 C-42.251875 118.219375 -42.06625 119.18875 -41.875 120.1875 C-40.04944553 121.26748428 -40.04944553 121.26748428 -37.875 122.1875 C-37.24722656 122.61289063 -36.61945312 123.03828125 -35.97265625 123.4765625 C-29.39394207 127.79502747 -23.575917 127.72311247 -15.875 127.1875 C-14.45855763 132.21249794 -14.20594261 137.18032782 -15.875 142.1875 C-17.9375 144 -17.9375 144 -20.875 145.1875 C-23.68433515 144.91507962 -26.21842305 144.11596023 -28.875 143.1875 C-29.844375 142.8575 -30.81375 142.5275 -31.8125 142.1875 C-33.875 141.1875 -33.875 141.1875 -34.875 139.1875 C-35.98875 138.713125 -37.1025 138.23875 -38.25 137.75 C-41.5455987 136.32948332 -42.56479265 135.64264359 -44.875 133.1875 C-45.96383789 132.2776674 -47.05920185 131.37560155 -48.16015625 130.48046875 C-52.03513522 127.18046693 -55.16881212 123.48778977 -58.3125 119.5 C-58.85326172 118.83677734 -59.39402344 118.17355469 -59.95117188 117.49023438 C-60.46099609 116.85021484 -60.97082031 116.21019531 -61.49609375 115.55078125 C-61.9542749 114.97626221 -62.41245605 114.40174316 -62.88452148 113.80981445 C-63.875 112.1875 -63.875 112.1875 -63.875 109.1875 C-64.535 108.8575 -65.195 108.5275 -65.875 108.1875 C-67.2499149 105.28490189 -67.875 103.42611295 -67.875 100.1875 C-68.535 99.8575 -69.195 99.5275 -69.875 99.1875 C-75.28569467 84.46941772 -75.2903451 63.88629385 -69.875 49.1875 C-69.215 49.1875 -68.555 49.1875 -67.875 49.1875 C-68.37 47.7025 -68.37 47.7025 -68.875 46.1875 C-68.215 46.1875 -67.555 46.1875 -66.875 46.1875 C-66.7925 45.32125 -66.71 44.455 -66.625 43.5625 C-65.75702915 39.65663119 -64.24080045 37.38828884 -61.875 34.1875 C-61.33875 33.424375 -60.8025 32.66125 -60.25 31.875 C-58.875 30.1875 -58.875 30.1875 -56.875 29.1875 C-56.545 28.1975 -56.215 27.2075 -55.875 26.1875 C-54.52734375 24.828125 -54.52734375 24.828125 -52.8125 23.4375 C-50.0698986 21.17921835 -47.39407022 18.87314082 -44.75 16.5 C-37.54369469 10.1875 -37.54369469 10.1875 -33.875 10.1875 C-33.875 9.5275 -33.875 8.8675 -33.875 8.1875 C-27.4599443 5.30809087 -21.90452752 3.6410179 -14.875 3.1875 C-14.875 2.5275 -14.875 1.8675 -14.875 1.1875 C-9.94587411 -0.09080028 -5.05503707 0.00370061 0 0 Z " fill="#121212" transform="translate(83.875,9.8125)"/>
<path d="M0 0 C0.495 0.99 0.495 0.99 1 2 C0.34 2 -0.32 2 -1 2 C-2.40459731 4.59310273 -3.54608353 7.25924537 -4.625 10 C-4.88539062 10.66 -5.14578125 11.32 -5.4140625 12 C-6.18743426 14.29243162 -6.18743426 14.29243162 -6 18 C-6.66 18 -7.32 18 -8 18 C-9.43988773 24.83946671 -10.39607503 32.63235932 -7 39 C-8.2065625 40.36125 -8.2065625 40.36125 -9.4375 41.75 C-11.41142671 44.10309908 -12.63877467 45.86938046 -13 49 C-13.66 49 -14.32 49 -15 49 C-15 50.65 -15 52.3 -15 54 C-15.66 54 -16.32 54 -17 54 C-17.44722447 64.41867372 -17.0150363 74.12066071 -11 83 C-11 83.66 -11 84.32 -11 85 C-10.34 85 -9.68 85 -9 85 C-7.31237149 86.6454378 -5.6459651 88.31288577 -4 90 C-3.01 90.495 -3.01 90.495 -2 91 C-2 91.66 -2 92.32 -2 93 C0.64 93.66 3.28 94.32 6 95 C6 95.66 6 96.32 6 97 C6.99 96.67 7.98 96.34 9 96 C11.26171875 96.55859375 11.26171875 96.55859375 13.6875 97.4375 C14.89986328 97.86869141 14.89986328 97.86869141 16.13671875 98.30859375 C16.75160156 98.53675781 17.36648437 98.76492187 18 99 C18 100.32 18 101.64 18 103 C17.34 103 16.68 103 16 103 C16.495 106.465 16.495 106.465 17 110 C11.72625354 113.00675137 6.48023947 112.56156365 0.6875 111.25 C-2.24164642 109.88760632 -3.88466182 108.41752935 -6 106 C-6.99 105.01 -6.99 105.01 -8 104 C-8.99 103.01 -8.99 103.01 -10 102 C-10 101.01 -10 100.02 -10 99 C-14.97906259 98.24572703 -14.97906259 98.24572703 -20 98 C-19.195625 98.433125 -18.39125 98.86625 -17.5625 99.3125 C-15 101 -15 101 -14 104 C-13.505 104.433125 -13.01 104.86625 -12.5 105.3125 C-11 107 -11 107 -10.5625 110.0625 C-10.376875 111.031875 -10.19125 112.00125 -10 113 C-8.17444553 114.07998428 -8.17444553 114.07998428 -6 115 C-5.37222656 115.42539063 -4.74445312 115.85078125 -4.09765625 116.2890625 C2.48105793 120.60752747 8.299083 120.53561247 16 120 C17.41644237 125.02499794 17.66905739 129.99282782 16 135 C13.9375 136.8125 13.9375 136.8125 11 138 C8.19066485 137.72757962 5.65657695 136.92846023 3 136 C2.030625 135.67 1.06125 135.34 0.0625 135 C-2 134 -2 134 -3 132 C-4.11375 131.525625 -5.2275 131.05125 -6.375 130.5625 C-9.6705987 129.14198332 -10.68979265 128.45514359 -13 126 C-14.08883789 125.0901674 -15.18420185 124.18810155 -16.28515625 123.29296875 C-20.16013522 119.99296693 -23.29381212 116.30028977 -26.4375 112.3125 C-26.97826172 111.64927734 -27.51902344 110.98605469 -28.07617188 110.30273438 C-28.58599609 109.66271484 -29.09582031 109.02269531 -29.62109375 108.36328125 C-30.0792749 107.78876221 -30.53745605 107.21424316 -31.00952148 106.62231445 C-32 105 -32 105 -32 102 C-32.66 101.67 -33.32 101.34 -34 101 C-35.3749149 98.09740189 -36 96.23861295 -36 93 C-36.66 92.67 -37.32 92.34 -38 92 C-43.41069467 77.28191772 -43.4153451 56.69879385 -38 42 C-37.34 42 -36.68 42 -36 42 C-36.495 40.515 -36.495 40.515 -37 39 C-36.34 39 -35.68 39 -35 39 C-34.9175 38.13375 -34.835 37.2675 -34.75 36.375 C-33.88202915 32.46913119 -32.36580045 30.20078884 -30 27 C-29.46375 26.236875 -28.9275 25.47375 -28.375 24.6875 C-27 23 -27 23 -25 22 C-24.67 21.01 -24.34 20.02 -24 19 C-22.65234375 17.640625 -22.65234375 17.640625 -20.9375 16.25 C-18.1948986 13.99171835 -15.51907022 11.68564082 -12.875 9.3125 C-5.66869469 3 -5.66869469 3 -2 3 C-2 2.34 -2 1.68 -2 1 C-1.34 0.67 -0.68 0.34 0 0 Z " fill="#181818" transform="translate(52,17)"/>
<path d="M0 0 C2.475 0.99 2.475 0.99 5 2 C5 2.66 5 3.32 5 4 C7.64 4.66 10.28 5.32 13 6 C13 6.66 13 7.32 13 8 C13.99 7.67 14.98 7.34 16 7 C18.26171875 7.55859375 18.26171875 7.55859375 20.6875 8.4375 C21.49574219 8.72496094 22.30398437 9.01242188 23.13671875 9.30859375 C23.75160156 9.53675781 24.36648437 9.76492187 25 10 C25 11.32 25 12.64 25 14 C24.34 14 23.68 14 23 14 C23.33 16.31 23.66 18.62 24 21 C18.72625354 24.00675137 13.48023947 23.56156365 7.6875 22.25 C4.75835358 20.88760632 3.11533818 19.41752935 1 17 C0.34 16.34 -0.32 15.68 -1 15 C-1.66 14.34 -2.32 13.68 -3 13 C-3 12.01 -3 11.02 -3 10 C-3.99 9.67 -4.98 9.34 -6 9 C-4.68 8.67 -3.36 8.34 -2 8 C-2.66 7.67 -3.32 7.34 -4 7 C-3.625 5.0625 -3.625 5.0625 -3 3 C-2.34 2.67 -1.68 2.34 -1 2 C-0.67 1.34 -0.34 0.68 0 0 Z " fill="#292929" transform="translate(45,106)"/>
<path d="M0 0 C0.33 0.99 0.66 1.98 1 3 C0.34 3 -0.32 3 -1 3 C-1 4.65 -1 6.3 -1 8 C-1.66 8 -2.32 8 -3 8 C-3.75 6.25 -3.75 6.25 -4 4 C-2.0625 1.75 -2.0625 1.75 0 0 Z " fill="#8B8B8B" transform="translate(38,63)"/>
<path d="M0 0 C0.66 0 1.32 0 2 0 C1.67 0.66 1.34 1.32 1 2 C0.67 1.34 0.34 0.68 0 0 Z " fill="#F6F6F6" transform="translate(32,114)"/>
<path d="" fill="#FFFFFF" transform="translate(0,0)"/>
<path d="" fill="#E6E6E6" transform="translate(0,0)"/>
<path d="" fill="#FFFFFF" transform="translate(0,0)"/>
<path d="" fill="#FFFFFF" transform="translate(0,0)"/>
<path d="" fill="#FFFFFF" transform="translate(0,0)"/>
<path d="" fill="#FFFFFF" transform="translate(0,0)"/>
<path d="" fill="#FFFFFF" transform="translate(0,0)"/>
<path d="" fill="#E3E3E3" transform="translate(0,0)"/>
<path d="" fill="#FFFFFF" transform="translate(0,0)"/>
<path d="" fill="#CCCCCC" transform="translate(0,0)"/>
<path d="" fill="#FFFFFF" transform="translate(0,0)"/>
</svg>
