<?xml version="1.0" encoding="UTF-8"?>
<svg version="1.1" xmlns="http://www.w3.org/2000/svg" width="400" height="400">
<path d="M0 0 C1.16153847 -0.0049926 1.16153847 -0.0049926 2.34654236 -0.01008606 C3.97768568 -0.01511751 5.60883916 -0.01749556 7.23999023 -0.01733398 C9.68426368 -0.0195041 12.12807269 -0.03765517 14.57226562 -0.05664062 C27.98574041 -0.10600954 40.88914545 1.19372203 53.96484375 4.35546875 C55.29177246 4.67584106 55.29177246 4.67584106 56.64550781 5.00268555 C65.65300475 7.27550745 74.13898677 10.48244929 82.65234375 14.16796875 C83.35810547 14.46541992 84.06386719 14.76287109 84.79101562 15.06933594 C101.6800863 22.24215062 121.6481049 33.08268768 132.65234375 48.16796875 C134.04616835 52.44236418 133.64115223 55.13543803 131.8012085 59.20736694 C129.4796026 63.16931696 126.13060018 66.23554573 122.87890625 69.4375 C122.11814789 70.19971359 121.35738953 70.96192719 120.57357788 71.74723816 C118.96956363 73.34959823 117.3606189 74.94703616 115.74707031 76.53979492 C113.28020028 78.97764583 110.83259634 81.43368532 108.38671875 83.89257812 C106.82272576 85.45033517 105.25765753 87.00701358 103.69140625 88.5625 C102.96104156 89.29580032 102.23067688 90.02910065 101.47817993 90.78462219 C100.44218155 91.80159431 100.44218155 91.80159431 99.38525391 92.83911133 C98.78363434 93.43532791 98.18201477 94.03154449 97.56216431 94.64582825 C94.24277324 97.29140643 91.3631999 98.12988717 87.15234375 98.35546875 C81.58760282 97.49450883 77.30718179 93.74272273 72.87109375 90.51171875 C56.64226377 78.69460954 36.75231033 71.98145812 16.65234375 71.16796875 C15.79511719 71.11640625 14.93789062 71.06484375 14.0546875 71.01171875 C-14.40453411 70.07221212 -41.827389 81.29463802 -62.67578125 100.2890625 C-65.9297827 103.41642259 -65.9297827 103.41642259 -68.34765625 107.16796875 C-69.00765625 107.16796875 -69.66765625 107.16796875 -70.34765625 107.16796875 C-70.61320312 107.73902344 -70.87875 108.31007813 -71.15234375 108.8984375 C-72.40940083 111.28520273 -73.864803 113.31547565 -75.47265625 115.48046875 C-92.84667442 140.1660529 -98.64554849 169.52361076 -94.09375 199.20703125 C-89.28816061 226.55777704 -73.6875491 250.81950269 -51.34765625 267.16796875 C-27.03463198 283.97348294 1.33303004 290.79086922 30.62353516 285.56591797 C53.92851159 280.99466507 73.91477813 270.04761896 90.65234375 253.16796875 C90.98234375 252.50796875 91.31234375 251.84796875 91.65234375 251.16796875 C92.31234375 251.16796875 92.97234375 251.16796875 93.65234375 251.16796875 C93.89726562 250.6265625 94.1421875 250.08515625 94.39453125 249.52734375 C95.94508045 246.61886016 97.83647483 244.08243688 99.77734375 241.41796875 C103.35517479 236.40361352 106.27037975 231.25332278 108.95703125 225.71484375 C109.49638306 224.61922119 109.49638306 224.61922119 110.04663086 223.50146484 C110.91987235 221.72592224 111.78678803 219.94727073 112.65234375 218.16796875 C111.07499954 218.1779615 111.07499954 218.1779615 109.46578979 218.18815613 C99.54901049 218.24900827 89.63226913 218.29396113 79.71534538 218.32340527 C74.61711715 218.33905175 69.51903983 218.36027158 64.42089844 218.39428711 C59.49960983 218.42691664 54.57846624 218.44482942 49.65707779 218.45260048 C47.78082115 218.45813752 45.90457232 218.46895003 44.02837753 218.48515892 C41.39748824 218.50698096 38.76719591 218.50993368 36.13623047 218.50854492 C35.36298935 218.51933075 34.58974823 218.53011658 33.79307556 218.54122925 C29.01059776 218.513967 25.64838012 217.84217357 21.65234375 215.16796875 C17.96538248 209.49969523 18.21138038 202.06614101 18.25390625 195.54296875 C18.24960098 194.06256104 18.24960098 194.06256104 18.24520874 192.55224609 C18.24317912 190.47818422 18.24863125 188.40410272 18.26123047 186.33007812 C18.27729955 183.17664306 18.26134364 180.02448951 18.2421875 176.87109375 C18.24417013 174.84504929 18.2480142 172.81900561 18.25390625 170.79296875 C18.24783356 169.86145996 18.24176086 168.92995117 18.23550415 167.97021484 C18.30536018 161.38663786 18.77638014 154.04393236 23.65234375 149.16796875 C27.46158886 147.2633462 30.46209368 147.03894451 34.66731262 147.02752686 C35.92488876 147.02181671 37.1824649 147.01610657 38.47814941 147.01022339 C39.87451162 147.00897804 41.27087394 147.00785294 42.66723633 147.00683594 C44.13575872 147.00220731 45.6042799 146.99718259 47.07279968 146.99179077 C51.06463267 146.97866885 55.05644884 146.9722222 59.04830003 146.96778011 C61.54241744 146.96484899 64.03653027 146.9607441 66.53064537 146.95627594 C74.33465549 146.94260142 82.1386551 146.9329346 89.94267637 146.92907405 C98.95032309 146.92459357 107.95781806 146.90704603 116.96541864 146.87807345 C123.92857576 146.85645445 130.89169019 146.84636965 137.85488051 146.84503293 C142.01340327 146.84398504 146.17178335 146.83808063 150.33027077 146.82021332 C154.24304344 146.80372885 158.15556625 146.80157886 162.06836128 146.81035233 C163.50263895 146.81112251 164.93693007 146.80678239 166.37117386 146.79689407 C168.33288295 146.78416483 170.29469254 146.79184663 172.25642395 146.80047607 C173.35314832 146.79900951 174.44987268 146.79754295 175.57983112 146.79603195 C180.17375062 147.35213958 183.46725677 149.1145581 186.90234375 152.16796875 C191.77647523 160.52362272 191.03961942 171.47743932 191.02734375 180.85546875 C191.02713226 181.52927582 191.02692078 182.20308289 191.02670288 182.89730835 C190.98618458 195.93632758 189.52130088 208.44290889 186.65234375 221.16796875 C186.47574219 221.96944336 186.29914063 222.77091797 186.1171875 223.59667969 C180.7638225 247.08209023 169.66966159 269.40949453 154.65234375 288.16796875 C153.97945313 289.04453125 153.3065625 289.92109375 152.61328125 290.82421875 C123.98831359 327.27548843 82.14957446 350.15306502 36.65234375 357.16796875 C35.45480469 357.36132812 34.25726563 357.5546875 33.0234375 357.75390625 C-13.74192002 363.26256373 -61.32293949 350.20226408 -98.34765625 321.16796875 C-111.62006519 310.50481922 -123.25888864 298.89428327 -133.34765625 285.16796875 C-133.76515137 284.60013672 -134.18264648 284.03230469 -134.61279297 283.44726562 C-152.16636831 259.18837769 -163.08183995 231.7584933 -167.34765625 202.16796875 C-167.44933105 201.46631592 -167.55100586 200.76466309 -167.65576172 200.04174805 C-169.97886896 181.89790777 -168.99679281 163.05146405 -165.34765625 145.16796875 C-165.20312012 144.43578125 -165.05858398 143.70359375 -164.90966797 142.94921875 C-158.96196673 113.44124362 -145.54866339 85.60274111 -125.34765625 63.16796875 C-124.82558594 62.58708496 -124.30351563 62.00620117 -123.765625 61.40771484 C-92.69977804 27.01964554 -47.67693922 0.07358837 0 0 Z " fill="#117DE8" transform="translate(188.34765625,20.83203125)"/>
<path d="M0 0 C1.16153847 -0.0049926 1.16153847 -0.0049926 2.34654236 -0.01008606 C3.97768568 -0.01511751 5.60883916 -0.01749556 7.23999023 -0.01733398 C9.68426368 -0.0195041 12.12807269 -0.03765517 14.57226562 -0.05664062 C27.98574041 -0.10600954 40.88914545 1.19372203 53.96484375 4.35546875 C55.29177246 4.67584106 55.29177246 4.67584106 56.64550781 5.00268555 C65.65300475 7.27550745 74.13898677 10.48244929 82.65234375 14.16796875 C83.35810547 14.46541992 84.06386719 14.76287109 84.79101562 15.06933594 C101.6800863 22.24215062 121.6481049 33.08268768 132.65234375 48.16796875 C134.04616835 52.44236418 133.64115223 55.13543803 131.8012085 59.20736694 C129.4796026 63.16931696 126.13060018 66.23554573 122.87890625 69.4375 C122.11814789 70.19971359 121.35738953 70.96192719 120.57357788 71.74723816 C118.96956363 73.34959823 117.3606189 74.94703616 115.74707031 76.53979492 C113.28020028 78.97764583 110.83259634 81.43368532 108.38671875 83.89257812 C106.82272576 85.45033517 105.25765753 87.00701358 103.69140625 88.5625 C102.96104156 89.29580032 102.23067688 90.02910065 101.47817993 90.78462219 C100.44218155 91.80159431 100.44218155 91.80159431 99.38525391 92.83911133 C98.78363434 93.43532791 98.18201477 94.03154449 97.56216431 94.64582825 C94.24277324 97.29140643 91.3631999 98.12988717 87.15234375 98.35546875 C81.58760282 97.49450883 77.30718179 93.74272273 72.87109375 90.51171875 C56.64226377 78.69460954 36.75231033 71.98145812 16.65234375 71.16796875 C15.79511719 71.11640625 14.93789062 71.06484375 14.0546875 71.01171875 C-14.40453411 70.07221212 -41.827389 81.29463802 -62.67578125 100.2890625 C-65.9297827 103.41642259 -65.9297827 103.41642259 -68.34765625 107.16796875 C-69.00765625 107.16796875 -69.66765625 107.16796875 -70.34765625 107.16796875 C-70.61320312 107.73902344 -70.87875 108.31007813 -71.15234375 108.8984375 C-72.40940083 111.28520273 -73.864803 113.31547565 -75.47265625 115.48046875 C-92.85328035 140.17543882 -98.61899636 169.50017832 -94.1015625 199.19140625 C-92.21586605 209.94332384 -88.2894936 219.93592617 -83.484375 229.69140625 C-82.34765625 232.16796875 -82.34765625 232.16796875 -82.34765625 234.16796875 C-83.43143555 234.78502686 -83.43143555 234.78502686 -84.53710938 235.41455078 C-100.40312571 244.45256735 -116.22863558 253.55238898 -131.97900391 262.79101562 C-134.10489962 264.02684863 -136.24435383 265.23367072 -138.390625 266.43359375 C-141.35027014 268.00245444 -141.35027014 268.00245444 -143.34765625 270.16796875 C-155.54067204 248.51864612 -163.79376315 226.8201229 -167.34765625 202.16796875 C-167.44933105 201.46631592 -167.55100586 200.76466309 -167.65576172 200.04174805 C-169.97886896 181.89790777 -168.99679281 163.05146405 -165.34765625 145.16796875 C-165.20312012 144.43578125 -165.05858398 143.70359375 -164.90966797 142.94921875 C-158.96196673 113.44124362 -145.54866339 85.60274111 -125.34765625 63.16796875 C-124.82558594 62.58708496 -124.30351563 62.00620117 -123.765625 61.40771484 C-92.69977804 27.01964554 -47.67693922 0.07358837 0 0 Z " fill="#FD4B25" transform="translate(188.34765625,20.83203125)"/>
<path d="M0 0 C1.65625 2.203125 1.65625 2.203125 3.5 5.25 C18.56325606 28.62971553 43.04879156 44.91872527 70.12915039 50.85546875 C94.7774795 55.93205839 120.91725335 52.60965747 143.05053711 40.50341797 C144.67450256 39.61968156 146.334612 38.80295493 148 38 C148.66 38.33 149.32 38.66 150 39 C150 40.98 150 42.96 150 45 C150.99 45.33 151.98 45.66 153 46 C154.24609375 47.71484375 154.24609375 47.71484375 155.4375 49.9375 C155.82808594 50.64777344 156.21867188 51.35804688 156.62109375 52.08984375 C157.81307744 54.60550339 158.80887738 57.10010705 159.796875 59.69921875 C161.93686934 65.11923258 164.74401872 69.93542272 167.8125 74.875 C168.87671249 76.61954137 169.94051583 78.36433241 171.00390625 80.109375 C171.5158252 80.94404297 172.02774414 81.77871094 172.55517578 82.63867188 C174.48056439 85.78540365 176.37403584 88.94852081 178.25 92.125 C179.06210937 93.49011719 179.06210937 93.49011719 179.890625 94.8828125 C181 97 181 97 181 99 C181.66 99.33 182.32 99.66 183 100 C163.10923966 112.66183841 141.1765862 119.42656227 118 123 C116.80246094 123.19335938 115.60492188 123.38671875 114.37109375 123.5859375 C67.60573623 129.09459498 20.02471676 116.03429533 -17 87 C-32.77563717 74.32573877 -46.04225793 60.22774447 -57.25 43.375 C-57.64517822 42.79524414 -58.04035645 42.21548828 -58.44750977 41.61816406 C-61.02372438 37.62105668 -61.02372438 37.62105668 -60.92456055 35.02514648 C-59.54990872 32.01412538 -57.5648468 31.22460588 -54.69140625 29.63671875 C-53.563396 29.0039502 -52.43538574 28.37118164 -51.27319336 27.71923828 C-50.03634978 27.04189319 -48.7994507 26.36464944 -47.5625 25.6875 C-46.30331766 24.9856459 -45.04494347 24.2823401 -43.78735352 23.57763672 C-41.17760168 22.11614093 -38.56485752 20.66021006 -35.95019531 19.20751953 C-29.7403177 15.74797076 -23.59073811 12.18395648 -17.4375 8.625 C-15.78053101 7.67113403 -15.78053101 7.67113403 -14.09008789 6.69799805 C-13.06906982 6.10929932 -12.04805176 5.52060059 -10.99609375 4.9140625 C-10.10075928 4.3979541 -9.2054248 3.8818457 -8.28295898 3.35009766 C-2.61808318 0 -2.61808318 0 0 0 Z " fill="#0CA841" transform="translate(107,255)"/>
<path d="M0 0 C9.81320566 4.64217513 19.12345678 10.04157837 28.48144531 15.52685547 C32.62444127 17.95016272 36.78175626 20.34864457 40.9375 22.75 C47.96732218 26.81800432 54.98894245 30.89972083 62 35 C60.65513573 39.2715451 59.00283796 43.25033758 57.125 47.3125 C46.02194724 72.33600092 46.02709782 102.50555055 55.25732422 128.08056641 C56.90242235 132.33229604 58.84925803 136.43451379 60.86328125 140.5234375 C62 143 62 143 62 145 C60.9162207 145.61705811 60.9162207 145.61705811 59.81054688 146.24658203 C43.94453054 155.2845986 28.11902067 164.38442023 12.36865234 173.62304688 C10.24275663 174.85887988 8.10330242 176.06570197 5.95703125 177.265625 C2.99738611 178.83448569 2.99738611 178.83448569 1 181 C-11.19301579 159.35067737 -19.4461069 137.65215415 -23 113 C-23.1016748 112.29834717 -23.20334961 111.59669434 -23.30810547 110.8737793 C-25.63121271 92.72993902 -24.64913656 73.8834953 -21 56 C-20.85546387 55.2678125 -20.71092773 54.535625 -20.56201172 53.78125 C-16.78487672 35.04197559 -10.17964704 16.26222252 0 0 Z " fill="#FDD601" transform="translate(44,110)"/>
<path d="M0 0 C2.39112787 0.0107149 4.78150221 0.00004027 7.17260742 -0.01269531 C20.46913789 -0.02596607 33.31443603 1.31500831 46.2722168 4.44824219 C47.15683594 4.66182373 48.04145508 4.87540527 48.95288086 5.09545898 C57.9603778 7.36828089 66.44635981 10.57522273 74.9597168 14.26074219 C76.01835937 14.70691895 76.01835937 14.70691895 77.09838867 15.16210938 C93.98745935 22.33492405 113.95547795 33.17546112 124.9597168 48.26074219 C126.35354139 52.53513762 125.94852528 55.22821147 124.10858154 59.30014038 C121.78697565 63.2620904 118.43797323 66.32831916 115.1862793 69.53027344 C114.42552094 70.29248703 113.66476257 71.05470062 112.88095093 71.8400116 C111.27693668 73.44237167 109.66799195 75.0398096 108.05444336 76.63256836 C105.58757332 79.07041927 103.13996939 81.52645876 100.6940918 83.98535156 C99.1300988 85.5431086 97.56503058 87.09978702 95.9987793 88.65527344 C95.26841461 89.38857376 94.53804993 90.12187408 93.78555298 90.87739563 C93.09488739 91.55537704 92.4042218 92.23335846 91.69262695 92.93188477 C91.09100739 93.52810135 90.48938782 94.12431793 89.86953735 94.73860168 C86.55014628 97.38417986 83.67057294 98.22266061 79.4597168 98.44824219 C73.89497587 97.58728227 69.61455483 93.83549616 65.1784668 90.60449219 C48.94793017 78.78614028 29.06086538 72.07703249 8.9597168 71.26074219 C7.70868164 71.18339844 7.70868164 71.18339844 6.43237305 71.10449219 C-3.82342561 70.75927596 -13.94373481 72.66027752 -24.0402832 74.26074219 C-24.0402832 73.60074219 -24.0402832 72.94074219 -24.0402832 72.26074219 C-18.68313642 70.2470629 -13.70338838 68.90205118 -7.9855957 68.47167969 C-5.82569222 68.3070536 -5.82569222 68.3070536 -3.0402832 67.26074219 C0.4247168 67.75574219 0.4247168 67.75574219 3.9597168 68.26074219 C3.9597168 46.48074219 3.9597168 24.70074219 3.9597168 2.26074219 C-7.2602832 2.59074219 -18.4802832 2.92074219 -30.0402832 3.26074219 C-30.0402832 2.93074219 -30.0402832 2.60074219 -30.0402832 2.26074219 C-19.95297577 0.46952853 -10.21760301 -0.05427678 0 0 Z " fill="#D93D1F" transform="translate(196.040283203125,20.7392578125)"/>
<path d="M0 0 C1.26603561 -0.00701431 2.53207123 -0.01402863 3.83647156 -0.02125549 C5.22670143 -0.01382903 6.61692971 -0.00609793 8.00715637 0.00190735 C9.48099016 -0.00052235 10.9548223 -0.00424341 12.4286499 -0.00915527 C16.42019275 -0.01854106 20.41148941 -0.00915973 24.40301299 0.00417686 C28.58163337 0.01550906 32.76024195 0.01138264 36.93887329 0.00942993 C43.95223506 0.00854781 50.9655 0.01961267 57.97883606 0.03804016 C66.09051306 0.05923129 74.2020485 0.06271193 82.31374758 0.0564782 C90.11777695 0.05078779 97.92175641 0.05642479 105.72577858 0.06765175 C109.04749282 0.07229949 112.36917656 0.07317087 115.69089317 0.0710659 C119.59875491 0.06918502 123.50647213 0.07727133 127.41430092 0.0931263 C128.84982836 0.09737522 130.28537045 0.09821562 131.72090149 0.0954361 C133.67697809 0.09222268 135.63306313 0.1025056 137.58911133 0.11352539 C138.68470462 0.11557826 139.78029791 0.11763113 140.909091 0.11974621 C143.6040802 0.3742218 143.6040802 0.3742218 146.6040802 2.3742218 C145.84832514 2.37845374 145.09257008 2.38268568 144.31391335 2.38704586 C125.94538789 2.49024102 107.57690192 2.59886192 89.2084446 2.71356106 C80.3256882 2.76889656 71.4429278 2.82237908 62.56013489 2.87153625 C54.82009868 2.9143741 47.08009208 2.96065107 39.3401016 3.01110035 C35.2398575 3.03770452 31.13961929 3.06255767 27.03934097 3.08329582 C23.18329434 3.10285296 19.32730409 3.12699395 15.47130775 3.15471268 C14.0531078 3.16408801 12.63489547 3.17176156 11.21667671 3.17764091 C9.28618567 3.18589379 7.35572621 3.20075951 5.42527771 3.21600342 C3.80200027 3.22568224 3.80200027 3.22568224 2.14592934 3.2355566 C-0.38856457 3.20478232 -0.38856457 3.20478232 -2.3959198 4.3742218 C-2.3959198 3.7142218 -2.3959198 3.0542218 -2.3959198 2.3742218 C-7.94420225 3.12237693 -7.94420225 3.12237693 -11.8959198 6.4992218 C-12.0609198 7.1179718 -12.2259198 7.7367218 -12.3959198 8.3742218 C-13.0559198 8.3742218 -13.7159198 8.3742218 -14.3959198 8.3742218 C-13.45978363 4.91051798 -12.82230432 3.63526914 -9.70972729 1.72964191 C-6.18145093 0.28649932 -3.79185949 -0.00057996 0 0 Z " fill="#1C70BB" transform="translate(223.3959197998047,167.6257781982422)"/>
<path d="M0 0 C0.66 0.66 1.32 1.32 2 2 C1.625 4.625 1.625 4.625 1 7 C2.54975273 7.0154612 2.54975273 7.0154612 4.1308136 7.03123474 C13.85731002 7.12890053 23.5837415 7.23162816 33.31013203 7.33933926 C38.31081746 7.39455394 43.31150876 7.44797168 48.31225586 7.49731445 C53.13631012 7.54497937 57.96029281 7.59732306 62.7842617 7.65294075 C64.62667247 7.67335464 66.46910285 7.69206932 68.31154823 7.70907402 C70.88786551 7.73313934 73.46404745 7.76319108 76.0402832 7.79467773 C77.18827141 7.80331093 77.18827141 7.80331093 78.35945129 7.81211853 C81.49915326 7.85586803 83.99929144 7.99976381 87 9 C86.67 9.99 86.34 10.98 86 12 C86 11.34 86 10.68 86 10 C84.42265579 10.00999275 84.42265579 10.00999275 82.81344604 10.02018738 C72.89666674 10.08103952 62.97992538 10.12599238 53.06300163 10.15543652 C47.9647734 10.171083 42.86669608 10.19230283 37.76855469 10.22631836 C32.84726608 10.25894789 27.92612249 10.27686067 23.00473404 10.28463173 C21.1284774 10.29016877 19.25222857 10.30098128 17.37603378 10.31719017 C14.74514449 10.33901221 12.11485216 10.34196493 9.48388672 10.34057617 C8.7106456 10.351362 7.93740448 10.36214783 7.14073181 10.3732605 C2.35966745 10.3460063 -0.9595896 9.58552368 -5 7 C-5.875 4.8125 -5.875 4.8125 -6 3 C-4.02 3.99 -4.02 3.99 -2 5 C-1.34 3.35 -0.68 1.7 0 0 Z " fill="#1D75C1" transform="translate(215,229)"/>
<path d="M0 0 C1.35043896 4.42606214 0.39585862 8.23714277 -0.4375 12.6875 C-3.55675746 30.93349788 -2.77957215 49.32646 3.41088867 66.86157227 C5.09659296 71.71022113 5.09659296 71.71022113 4 75 C1.32752501 71.18217859 0.04654101 67.38866006 -1.171875 62.94921875 C-1.74388412 60.91211078 -2.38418085 58.89339213 -3.078125 56.89453125 C-8.10456298 41.23115937 -7.56008355 22.98858953 -4 7 C-3.34 7 -2.68 7 -2 7 C-1.34 4.69 -0.68 2.38 0 0 Z " fill="#F2DA3A" transform="translate(95,168)"/>
<path d="M0 0 C0 4.11810602 -2.17632618 5.74091539 -4.875 8.5625 C-5.37821777 9.09625244 -5.88143555 9.63000488 -6.39990234 10.17993164 C-7.43667841 11.2748858 -8.47722736 12.36627965 -9.52148438 13.45410156 C-10.81547305 14.8070633 -12.08918963 16.17935434 -13.359375 17.5546875 C-23.88061115 28.62012552 -36.52439998 37.85974951 -50 45 C-52.85101671 42.33174077 -54.890941 39.80622618 -56.75 36.375 C-57.17796875 35.59898437 -57.6059375 34.82296875 -58.046875 34.0234375 C-59 32 -59 32 -59 30 C-58.34 30 -57.68 30 -57 30 C-55.4921875 31.86328125 -55.4921875 31.86328125 -53.875 34.3125 C-53.06675781 35.51326172 -53.06675781 35.51326172 -52.2421875 36.73828125 C-51 39 -51 39 -51 42 C-49.51515588 41.60404157 -48.0371169 41.18249294 -46.5625 40.75 C-45.32693359 40.40195312 -45.32693359 40.40195312 -44.06640625 40.046875 C-41.80004532 39.19229321 -41.80004532 39.19229321 -41.21484375 36.890625 C-41.14394531 36.26671875 -41.07304687 35.6428125 -41 35 C-40.195625 34.87625 -39.39125 34.7525 -38.5625 34.625 C-37.716875 34.41875 -36.87125 34.2125 -36 34 C-35.67 33.34 -35.34 32.68 -35 32 C-34.01 31.67 -33.02 31.34 -32 31 C-32 29.68 -32 28.36 -32 27 C-30.35 27.33 -28.7 27.66 -27 28 C-27 27.34 -27 26.68 -27 26 C-26.34 26 -25.68 26 -25 26 C-24.67 24.68 -24.34 23.36 -24 22 C-22.35 21.67 -20.7 21.34 -19 21 C-19.495 18.03 -19.495 18.03 -20 15 C-17.525 15.99 -17.525 15.99 -15 17 C-15 16.01 -15 15.02 -15 14 C-14.34 14 -13.68 14 -13 14 C-12.67 12.68 -12.34 11.36 -12 10 C-11.01 10 -10.02 10 -9 10 C-8.896875 9.21625 -8.79375 8.4325 -8.6875 7.625 C-8 5 -8 5 -5 3 C-3.66666667 2.33333333 -2.33333333 1.66666667 -1 1 C-0.67 0.67 -0.34 0.34 0 0 Z " fill="#1672C5" transform="translate(340,310)"/>
<path d="M0 0 C0.99 1.32 1.98 2.64 3 4 C3.33 3.34 3.66 2.68 4 2 C4.66 2 5.32 2 6 2 C6 1.34 6 0.68 6 0 C13.42857143 1 13.42857143 1 17 2 C17.33 1.34 17.66 0.68 18 0 C18.495 1.485 18.495 1.485 19 3 C13.04042016 5.01995374 7.05207264 6.47257184 0.875 7.625 C0.21886719 7.74786377 -0.43726563 7.87072754 -1.11328125 7.99731445 C-8.83262055 9.39461502 -16.17610875 10.15063742 -24 10.0625 C-25.16208984 10.05573242 -25.16208984 10.05573242 -26.34765625 10.04882812 C-28.23180524 10.03719758 -30.11591365 10.01926906 -32 10 C-32 9.34 -32 8.68 -32 8 C-24.15597666 7.27473468 -16.80255144 6.78925926 -9 8 C-8.67 7.01 -8.34 6.02 -8 5 C-5.01540871 3.04457812 -3.73585209 3 0 3 C0 2.01 0 1.02 0 0 Z M7 1 C8 3 8 3 8 3 Z " fill="#128B3D" transform="translate(232,369)"/>
<path d="M0 0 C9.36609416 4.44758661 18.17563712 9.57518676 27 15 C23.59068103 16.13643966 22.99664544 15.86747764 19.8125 14.5625 C19.09707031 14.27503906 18.38164063 13.98757812 17.64453125 13.69140625 C17.10183594 13.46324219 16.55914062 13.23507813 16 13 C16 12.01 16 11.02 16 10 C15.154375 9.731875 14.30875 9.46375 13.4375 9.1875 C9.86145933 7.9521405 6.46139092 6.523012 3 5 C0.33264727 7.48952921 -1.55746343 9.63408134 -3 13 C-3.66 13 -4.32 13 -5 13 C-5.66 16.3 -6.32 19.6 -7 23 C-7.66 23 -8.32 23 -9 23 C-9 24.65 -9 26.3 -9 28 C-9.66 28 -10.32 28 -11 28 C-11.103125 28.5775 -11.20625 29.155 -11.3125 29.75 C-12.09792798 32.32049158 -13.30504197 33.93657284 -15 36 C-14.38725402 30.48528614 -12.4839574 25.8590351 -10.3125 20.8125 C-9.95671875 19.97549561 -9.6009375 19.13849121 -9.234375 18.27612305 C-6.51099668 11.96366885 -3.51051808 5.91735056 0 0 Z " fill="#FCC52D" transform="translate(44,110)"/>
<path d="M0 0 C0.99 0.495 0.99 0.495 2 1 C2 3.97 2 6.94 2 10 C2.66 10 3.32 10 4 10 C4 12.31 4 14.62 4 17 C4.66 17 5.32 17 6 17 C7.87727895 23.76352984 9.6435984 30.53865761 11.25390625 37.37109375 C11.9049416 39.98129838 11.9049416 39.98129838 13.08984375 42.16015625 C14 44 14 44 14 47 C14.66 47 15.32 47 16 47 C16.33 48.98 16.66 50.96 17 53 C17.66 53 18.32 53 19 53 C20.76462683 56.08809695 21 57.23312136 21 61 C21.66 61.33 22.32 61.66 23 62 C22.34 62.66 21.68 63.32 21 64 C10.17415361 45.18787349 -0.53401623 22.22842568 0 0 Z " fill="#EED93E" transform="translate(22,223)"/>
<path d="M0 0 C2 3 2 3 1.75 6.375 C1 10 1 10 0 12.4375 C-1.10546538 15.27025504 -1.40360789 17.95411107 -1.71875 20.96484375 C-2 23 -2 23 -3 26.4375 C-4.99221179 33.53475449 -5.16018068 40.85567661 -5.31640625 48.19140625 C-5.33718735 49.02212143 -5.35796844 49.85283661 -5.37937927 50.70872498 C-5.44404482 53.32657715 -5.50336792 55.9445176 -5.5625 58.5625 C-5.60576445 60.35222217 -5.64938106 62.14193586 -5.69335938 63.93164062 C-5.79963924 68.28767315 -5.90113258 72.64379319 -6 77 C-6.33 77 -6.66 77 -7 77 C-10.36639532 51.50769998 -8.15509591 24.46528773 0 0 Z " fill="#E8D64F" transform="translate(28,146)"/>
<path d="M0 0 C0 0.66 0 1.32 0 2 C-0.721875 2.226875 -1.44375 2.45375 -2.1875 2.6875 C-5.6332855 4.29553323 -7.60259499 6.0546167 -10 9 C-10.41986946 11.71163778 -10.41986946 11.71163778 -10 14 C-13.11771927 15.60339848 -14.39011689 16.18974141 -17.8125 15.125 C-18.534375 14.75375 -19.25625 14.3825 -20 14 C-20.66 14.639375 -21.32 15.27875 -22 15.9375 C-25.85690912 18.58912502 -28.37840033 18.68667121 -33 19 C-30.58592394 16.31480309 -27.99707722 14.71939355 -24.8515625 12.96875 C-23.34335938 12.12376953 -23.34335938 12.12376953 -21.8046875 11.26171875 C-20.75539063 10.68035156 -19.70609375 10.09898437 -18.625 9.5 C-16.55440351 8.34425864 -14.48408152 7.18802533 -12.4140625 6.03125 C-11.4957666 5.52142578 -10.5774707 5.01160156 -9.63134766 4.48632812 C-7.82695672 3.46711009 -6.04583478 2.40590037 -4.28662109 1.31054688 C-2 0 -2 0 0 0 Z " fill="#12B241" transform="translate(89,265)"/>
<path d="M0 0 C0.99 0.495 0.99 0.495 2 1 C2 2.65 2 4.3 2 6 C-0.31 5.34 -2.62 4.68 -5 4 C-5 4.66 -5 5.32 -5 6 C-8.08809695 7.76462683 -9.23312136 8 -13 8 C-13 8.66 -13 9.32 -13 10 C-17.32591258 11.35844206 -21.65910717 12.69020459 -26 14 C-26.73347656 14.22300781 -27.46695313 14.44601562 -28.22265625 14.67578125 C-33.2169322 16.06484739 -38.1985168 16.42986853 -43.36328125 16.75390625 C-46.10605185 16.90940687 -46.10605185 16.90940687 -49 18 C-51.39870613 17.91343435 -53.79537281 17.76001509 -56.1875 17.5625 C-57.45980469 17.46066406 -58.73210937 17.35882813 -60.04296875 17.25390625 C-61.01878906 17.17011719 -61.99460938 17.08632813 -63 17 C-63 16.67 -63 16.34 -63 16 C-62.36199463 15.96036133 -61.72398926 15.92072266 -61.06665039 15.87988281 C-40.89811065 14.56875569 -20.89091675 12.38380658 -3.1953125 1.75 C-2.14085937 1.1725 -1.08640625 0.595 0 0 Z " fill="#15833D" transform="translate(255,293)"/>
<path d="M0 0 C3.93090369 0.26206025 7.15036124 0.71063863 10.87890625 1.98046875 C22.31297728 5.71550322 35.08040774 5.51711673 47 6 C47 6.66 47 7.32 47 8 C30.64778792 8.63253542 13.58771393 7.25805661 -2 2 C-1.34 1.34 -0.68 0.68 0 0 Z " fill="#20A24F" transform="translate(153,371)"/>
<path d="M0 0 C2.75 0.8125 2.75 0.8125 5 2 C5 2.66 5 3.32 5 4 C3.59248779 4.86916887 2.1735479 5.71985149 0.75 6.5625 C-0.03890625 7.03816406 -0.8278125 7.51382812 -1.640625 8.00390625 C-4.38128146 9.16097148 -5.24267071 8.82719879 -8 8 C-10.72981832 9.35400645 -10.72981832 9.35400645 -13 11 C-13.33 10.67 -13.66 10.34 -14 10 C-14.33 10.66 -14.66 11.32 -15 12 C-18 14 -18 14 -21 15 C-20.67 13.68 -20.34 12.36 -20 11 C-19.01 11 -18.02 11 -17 11 C-17 10.34 -17 9.68 -17 9 C-15.68 8.67 -14.36 8.34 -13 8 C-13 7.34 -13 6.68 -13 6 C-12.09507813 5.72736328 -12.09507813 5.72736328 -11.171875 5.44921875 C-6.14898803 3.93595111 -6.14898803 3.93595111 -1.75 1.1875 C-1.1725 0.795625 -0.595 0.40375 0 0 Z " fill="#0FB344" transform="translate(69,278)"/>
<path d="M0 0 C0.66 0.33 1.32 0.66 2 1 C1.236875 1.556875 0.47375 2.11375 -0.3125 2.6875 C-3.09573526 4.82709176 -3.09573526 4.82709176 -4.5625 7.6875 C-6 10 -6 10 -8.1875 10.8125 C-8.785625 10.874375 -9.38375 10.93625 -10 11 C-9.67 12.32 -9.34 13.64 -9 15 C-9.99 15.33 -10.98 15.66 -12 16 C-12 16.66 -12 17.32 -12 18 C-12.66 18 -13.32 18 -14 18 C-14 18.99 -14 19.98 -14 21 C-16.97 21.33 -19.94 21.66 -23 22 C-19.14838292 17.1579671 -14.91463569 12.93536285 -10.375 8.75 C-9.81272705 8.23083008 -9.2504541 7.71166016 -8.67114258 7.17675781 C-5.87967657 4.62725471 -3.08459793 2.1968356 0 0 Z " fill="#E44831" transform="translate(91,57)"/>
<path d="M0 0 C1.46604374 2.93208747 0.77925574 4.88297702 0 8 C-0.99 8.66 -1.98 9.32 -3 10 C-3.515625 10.86625 -4.03125 11.7325 -4.5625 12.625 C-5.036875 13.40875 -5.51125 14.1925 -6 15 C-6.66 15 -7.32 15 -8 15 C-7.87625 15.721875 -7.7525 16.44375 -7.625 17.1875 C-8 20 -8 20 -10.875 22.625 C-11.90625 23.40875 -12.9375 24.1925 -14 25 C-14.66 25.99 -15.32 26.98 -16 28 C-17.32 27.34 -18.64 26.68 -20 26 C-18.38405168 23.95880212 -16.7143618 21.95927063 -15 20 C-14.34 20 -13.68 20 -13 20 C-12.7628125 19.47535156 -12.525625 18.95070313 -12.28125 18.41015625 C-10.59913037 15.24592511 -8.55952636 12.36229062 -6.5 9.4375 C-3.21483015 4.74296111 -3.21483015 4.74296111 0 0 Z " fill="#1E71BE" transform="translate(295,252)"/>
<path d="M0 0 C4.1425189 0.22833119 8.25760268 0.81142907 12.375 1.3125 C13.53773438 1.44333984 14.70046875 1.57417969 15.8984375 1.70898438 C17.0121875 1.84240234 18.1259375 1.97582031 19.2734375 2.11328125 C20.29872559 2.23485596 21.32401367 2.35643066 22.38037109 2.48168945 C25 3 25 3 28 5 C27.12859375 4.9278125 26.2571875 4.855625 25.359375 4.78125 C10.02617154 3.58645493 -3.84911423 4.59834188 -19 7 C-19 6.34 -19 5.68 -19 5 C-13.57161096 2.95954171 -8.54502279 1.63349124 -2.75 1.2109375 C-0.97372383 1.17952591 -0.97372383 1.17952591 0 0 Z " fill="#CD5032" transform="translate(191,88)"/>
<path d="M0 0 C0 3.61207397 -1.1151038 4.98416608 -3 8 C-3.33 8.99 -3.66 9.98 -4 11 C-5.6548677 12.67838269 -7.32400954 14.34270958 -9 16 C-11.00495006 18.38567981 -12.90933118 20.84524109 -14.8125 23.3125 C-15.31458984 23.95767578 -15.81667969 24.60285156 -16.33398438 25.26757812 C-17.55905681 26.84267125 -18.7799632 28.42100316 -20 30 C-20.33 29.34 -20.66 28.68 -21 28 C-19.78545165 25.75705266 -18.5293686 23.68311345 -17.125 21.5625 C-16.51567627 20.62893677 -16.51567627 20.62893677 -15.89404297 19.67651367 C-11.22887592 12.65183832 -6.07897477 5.86869576 0 0 Z " fill="#DB4731" transform="translate(66,81)"/>
<path d="M0 0 C2.25 0 2.25 0 5 1 C6.26972878 2.99713273 7.19026384 5.00658616 8.10546875 7.1875 C8.86362971 9.18354008 8.86362971 9.18354008 11 10 C11.12375 10.61875 11.2475 11.2375 11.375 11.875 C12.20105759 14.6835958 13.67089276 15.32595417 16 17 C16.33 17.99 16.66 18.98 17 20 C17.66 20.33 18.32 20.66 19 21 C19 21.99 19 22.98 19 24 C19.99 24 20.98 24 22 24 C22 24.66 22 25.32 22 26 C22.99 26.33 23.98 26.66 25 27 C24.01 27.66 23.02 28.32 22 29 C16.59170011 23.32462357 11.69410826 17.44194983 7.0625 11.125 C6.59030029 10.48296631 6.11810059 9.84093262 5.6315918 9.17944336 C3.48693614 6.21814639 1.47927664 3.36429773 0 0 Z " fill="#21A24D" transform="translate(48,295)"/>
<path d="M0 0 C1.98 0 3.96 0 6 0 C5.62488281 0.4846875 5.24976562 0.969375 4.86328125 1.46875 C1.28508528 6.1555558 -1.96265326 10.94671516 -5 16 C-8.29680965 15.34215037 -10.84117922 14.10579427 -13.75 12.4375 C-14.54921875 11.98246094 -15.3484375 11.52742187 -16.171875 11.05859375 C-16.77515625 10.70925781 -17.3784375 10.35992187 -18 10 C-16.68 9.67 -15.36 9.34 -14 9 C-14 9.66 -14 10.32 -14 11 C-10.80197944 11.0888339 -8.02922118 11.07087702 -5 10 C-3.45481464 8.50150308 -3.45481464 8.50150308 -2.25 6.625 C-1.82203125 6.01914063 -1.3940625 5.41328125 -0.953125 4.7890625 C0.23509406 2.89656925 0.23509406 2.89656925 0 0 Z " fill="#E24E18" transform="translate(112,129)"/>
<path d="M0 0 C1.4783226 2.95664519 1.06032783 5.74229737 1 9 C0.21625 8.814375 -0.5675 8.62875 -1.375 8.4375 C-3.97089775 7.74037734 -3.97089775 7.74037734 -6 9 C-6.33 7.68 -6.66 6.36 -7 5 C-7.66 5 -8.32 5 -9 5 C-9 5.66 -9 6.32 -9 7 C-13.455 8.485 -13.455 8.485 -18 10 C-15.10103385 7.10103385 -12.51851287 5.36927774 -9 3.3125 C-7.4221875 2.37857422 -7.4221875 2.37857422 -5.8125 1.42578125 C-3 0 -3 0 0 0 Z " fill="#1EAB31" transform="translate(107,255)"/>
<path d="M0 0 C3.15139874 -0.36015986 4.72202878 -0.15983345 7.5 1.4375 C10.80178311 4.82182769 13.2194075 8.60787183 15 13 C14.67 13.66 14.34 14.32 14 15 C13.05598958 13.20963542 12.11197917 11.41927083 11.16796875 9.62890625 C10.00980201 7.67732013 10.00980201 7.67732013 7 7 C6.67 6.34 6.34 5.68 6 5 C4.68 5 3.36 5 2 5 C1.67 5.66 1.34 6.32 1 7 C1 6.34 1 5.68 1 5 C-0.65 5.66 -2.3 6.32 -4 7 C-4.33 6.34 -4.66 5.68 -5 5 C-4.34 4.01 -3.68 3.02 -3 2 C-2.01 2 -1.02 2 0 2 C0 1.34 0 0.68 0 0 Z " fill="#0E9553" transform="translate(250,297)"/>
<path d="M0 0 C2 3 2 3 1.75 6.375 C1 10 1 10 0 12.4375 C-1.10546538 15.27025504 -1.40360789 17.95411107 -1.71875 20.96484375 C-2 23 -2 23 -3 26.4375 C-4.17325042 30.61720463 -4.6283489 34.68689122 -5 39 C-5.33 39 -5.66 39 -6 39 C-7.0199616 25.71783341 -4.19462647 12.5838794 0 0 Z " fill="#EFDA44" transform="translate(28,146)"/>
<path d="M0 0 C2.74792483 3.40219265 6 7.48464588 6 12 C2.54914225 14.03381096 -0.91179696 16.04979434 -4.375 18.0625 C-5.35984375 18.64322266 -6.3446875 19.22394531 -7.359375 19.82226562 C-8.30039063 20.36689453 -9.24140625 20.91152344 -10.2109375 21.47265625 C-11.08024902 21.98062744 -11.94956055 22.48859863 -12.84521484 23.01196289 C-13.55629395 23.33801514 -14.26737305 23.66406738 -15 24 C-15.66 23.67 -16.32 23.34 -17 23 C-14.16569547 19.7457985 -12.31392226 18.4793247 -8 18 C-8 17.34 -8 16.68 -8 16 C-4.7 14.68 -1.4 13.36 2 12 C1.67 10.68 1.34 9.36 1 8 C0.60662402 5.33864152 0.3118246 2.67278227 0 0 Z " fill="#CEE72D" transform="translate(100,243)"/>
<path d="M0 0 C5.85861994 1.64547659 10.40844813 4.58894766 15.43359375 7.8984375 C19.55849483 10.4965347 22.01278382 11.23573252 27 11 C28.8125 13.375 28.8125 13.375 30 16 C30.33 16.66 30.66 17.32 31 18 C26.05200416 16.57327727 22.08046224 14.44168275 17.75 11.75 C16.43107531 10.94256829 15.11206457 10.13527712 13.79296875 9.328125 C13.15149902 8.93302734 12.5100293 8.53792969 11.84912109 8.13085938 C8.4811272 6.07110921 5.0671609 4.08809418 1.66015625 2.09375 C1.11230469 1.7328125 0.56445312 1.371875 0 1 C0 0.67 0 0.34 0 0 Z " fill="#D84F05" transform="translate(63,120)"/>
<path d="M0 0 C0.66 0.33 1.32 0.66 2 1 C-0.68705841 2.58408362 -3.37472829 4.167127 -6.0625 5.75 C-6.81466797 6.1934375 -7.56683594 6.636875 -8.34179688 7.09375 C-9.83834449 7.97483431 -11.33654313 8.85312065 -12.83642578 9.72851562 C-14.24852289 10.55837364 -15.65359199 11.40034261 -17.05029297 12.25585938 C-18.66613844 13.22947225 -20.32958825 14.12329982 -22 15 C-22.66 14.67 -23.32 14.34 -24 14 C-23.01 13.67 -22.02 13.34 -21 13 C-21.33 11.68 -21.66 10.36 -22 9 C-18.846632 8.29925156 -16.27275026 8 -13 8 C-13 7.34 -13 6.68 -13 6 C-11.96875 5.566875 -10.9375 5.13375 -9.875 4.6875 C-7.39459275 3.63596832 -5.07902861 2.51344908 -2.6875 1.25 C-1.800625 0.8375 -0.91375 0.425 0 0 Z " fill="#D3E729" transform="translate(81,267)"/>
<path d="M0 0 C0.33 0 0.66 0 1 0 C0.85904936 1.6254308 0.71207913 3.25034051 0.5625 4.875 C0.48128906 5.77992187 0.40007813 6.68484375 0.31640625 7.6171875 C0 10 0 10 -1 12 C-1.66 12 -2.32 12 -3 12 C-3 13.65 -3 15.3 -3 17 C-3.66 17 -4.32 17 -5 17 C-5.103125 17.5775 -5.20625 18.155 -5.3125 18.75 C-6.09792798 21.32049158 -7.30504197 22.93657284 -9 25 C-8.40414792 19.2306386 -6.23012403 14.38338464 -3.9375 9.125 C-3.56044922 8.24585938 -3.18339844 7.36671875 -2.79492188 6.4609375 C-1.86913928 4.30468436 -0.93738089 2.15123021 0 0 Z " fill="#F0D93B" transform="translate(38,121)"/>
<path d="M0 0 C0.99 0 1.98 0 3 0 C3.33 1.32 3.66 2.64 4 4 C3.20335937 4.67095703 3.20335937 4.67095703 2.390625 5.35546875 C-1.50473511 8.68927148 -4.81898796 11.96256164 -8 16 C-8.66 16 -9.32 16 -10 16 C-10 12 -10 12 -8.625 10.25 C-7 9 -7 9 -5 9 C-5 8.01 -5 7.02 -5 6 C-5.66 5.67 -6.32 5.34 -7 5 C-4.66666667 5 -2.33333333 5 0 5 C-0.2784375 4.0409375 -0.2784375 4.0409375 -0.5625 3.0625 C-0.706875 2.381875 -0.85125 1.70125 -1 1 C-0.67 0.67 -0.34 0.34 0 0 Z " fill="#E84C25" transform="translate(128,112)"/>
<path d="M0 0 C0.33 0.99 0.66 1.98 1 3 C-0.32 3 -1.64 3 -3 3 C-3.12375 3.61875 -3.2475 4.2375 -3.375 4.875 C-4 7 -4 7 -6 9 C-6.33 9.66 -6.66 10.32 -7 11 C-7.66 11 -8.32 11 -9 11 C-9 10.34 -9 9.68 -9 9 C-9.61875 9.20625 -10.2375 9.4125 -10.875 9.625 C-11.57625 9.74875 -12.2775 9.8725 -13 10 C-13.66 9.34 -14.32 8.68 -15 8 C-12 6 -12 6 -9 6 C-9 5.34 -9 4.68 -9 4 C-6.03 2.68 -3.06 1.36 0 0 Z " fill="#14B244" transform="translate(98,261)"/>
<path d="M0 0 C0.66 0 1.32 0 2 0 C2.33 1.65 2.66 3.3 3 5 C3.99 5 4.98 5 6 5 C6.28875 5.804375 6.5775 6.60875 6.875 7.4375 C7.73262568 10.1326468 7.73262568 10.1326468 10 11 C10.59355614 13.64860427 10.74209269 16.29197322 11 19 C7.4882036 15.84559881 5.44790407 12.53598933 3.25 8.375 C2.63640625 7.22773438 2.0228125 6.08046875 1.390625 4.8984375 C0 2 0 2 0 0 Z " fill="#1A91AE" transform="translate(265,312)"/>
<path d="M0 0 C0.66 0.33 1.32 0.66 2 1 C2 2.65 2 4.3 2 6 C-0.31 5.34 -2.62 4.68 -5 4 C-5 4.66 -5 5.32 -5 6 C-8.08809695 7.76462683 -9.23312136 8 -13 8 C-13 8.66 -13 9.32 -13 10 C-17.455 10.495 -17.455 10.495 -22 11 C-19.10403104 9.06935403 -16.47225068 7.90899329 -13.25 6.625 C-9.63139351 5.15302448 -6.21409762 3.65381881 -2.875 1.625 C-1.92625 1.08875 -0.9775 0.5525 0 0 Z " fill="#138049" transform="translate(255,293)"/>
<path d="M0 0 C-1.98 0.33 -3.96 0.66 -6 1 C-6 1.66 -6 2.32 -6 3 C-12.11404596 4.85743168 -17.58518742 6.42765417 -24 6 C-20.17661205 3.4510747 -16.39653985 2.52569614 -12 1.3125 C-11.18015625 1.07466797 -10.3603125 0.83683594 -9.515625 0.59179688 C-8.72671875 0.37201172 -7.9378125 0.15222656 -7.125 -0.07421875 C-6.40570313 -0.27619873 -5.68640625 -0.47817871 -4.9453125 -0.6862793 C-3 -1 -3 -1 0 0 Z " fill="#D75441" transform="translate(165,25)"/>
<path d="M0 0 C0.66 0 1.32 0 2 0 C3.5078125 1.86328125 3.5078125 1.86328125 5.125 4.3125 C5.66382813 5.11300781 6.20265625 5.91351563 6.7578125 6.73828125 C8 9 8 9 8 12 C9.093125 11.484375 10.18625 10.96875 11.3125 10.4375 C15 9 15 9 18 10 C15.03 11.65 12.06 13.3 9 15 C4.82093105 11.44005237 2.31440569 6.91336946 0 2 C0 1.34 0 0.68 0 0 Z " fill="#1774A8" transform="translate(281,340)"/>
<path d="M0 0 C7.37653219 0.75015582 14.67831776 1.83441535 22 3 C22 3.66 22 4.32 22 5 C20.56274129 5.16873478 19.12518162 5.33490737 17.6875 5.5 C16.88699219 5.5928125 16.08648437 5.685625 15.26171875 5.78125 C13 6 13 6 10 6 C10 5.34 10 4.68 10 4 C8.63875 3.7834375 8.63875 3.7834375 7.25 3.5625 C4.78523044 3.13590527 2.41152893 2.64925779 0 2 C0 1.34 0 0.68 0 0 Z " fill="#18A34A" transform="translate(170,305)"/>
<path d="M0 0 C0.66 0 1.32 0 2 0 C1.45144652 4.571279 0.58255197 8.67435795 -1 13 C-1.99 12.67 -2.98 12.34 -4 12 C-4 12.66 -4 13.32 -4 14 C-4.66 14 -5.32 14 -6 14 C-4.7874262 10.27566618 -3.49140021 6.62197194 -2 3 C-1.34 3 -0.68 3 0 3 C0 2.01 0 1.02 0 0 Z " fill="#1678D7" transform="translate(302,238)"/>
<path d="M0 0 C0.33 0.66 0.66 1.32 1 2 C1.66 2.33 2.32 2.66 3 3 C2.01 4.175625 2.01 4.175625 1 5.375 C-1.20201441 7.71512812 -1.20201441 7.71512812 -1 10 C1.46326712 11.6446674 1.46326712 11.6446674 4 13 C3.01 13.495 3.01 13.495 2 14 C0.0546875 13.00390625 0.0546875 13.00390625 -2.125 11.5625 C-2.84945312 11.08941406 -3.57390625 10.61632812 -4.3203125 10.12890625 C-4.87460937 9.75636719 -5.42890625 9.38382813 -6 9 C-4.16172132 5.84866512 -2.24027294 2.88035092 0 0 Z " fill="#EC4916" transform="translate(52,102)"/>
<path d="M0 0 C0.99 0.33 1.98 0.66 3 1 C0.75627625 2.82077582 -1.49433438 4.63162485 -3.75 6.4375 C-4.70132812 7.2119043 -4.70132812 7.2119043 -5.671875 8.00195312 C-6.6 8.74155273 -6.6 8.74155273 -7.546875 9.49609375 C-8.11245117 9.95169678 -8.67802734 10.4072998 -9.26074219 10.87670898 C-11.16076129 12.10382688 -12.7911709 12.57473693 -15 13 C-14.67 11.68 -14.34 10.36 -14 9 C-13.195625 8.87625 -12.39125 8.7525 -11.5625 8.625 C-10.716875 8.41875 -9.87125 8.2125 -9 8 C-8.67 7.34 -8.34 6.68 -8 6 C-7.01 5.67 -6.02 5.34 -5 5 C-5 3.68 -5 2.36 -5 1 C-3.35 1.33 -1.7 1.66 0 2 C0 1.34 0 0.68 0 0 Z " fill="#156BBB" transform="translate(313,336)"/>
<path d="M0 0 C-0.474375 0.7425 -0.94875 1.485 -1.4375 2.25 C-2.77869327 4.61050015 -3.512312 6.36648477 -4 9 C-4.99 9 -5.98 9 -7 9 C-7.33 8.34 -7.66 7.68 -8 7 C-8.66 6.67 -9.32 6.34 -10 6 C-7.09167817 0.84433858 -5.91982852 -0.15578496 0 0 Z " fill="#F5421E" transform="translate(75,78)"/>
<path d="M0 0 C0 0.66 0 1.32 0 2 C-0.7425 2.2475 -1.485 2.495 -2.25 2.75 C-5.09866969 3.84296181 -5.09866969 3.84296181 -7.0625 6.125 C-9 8 -9 8 -13 8 C-13.33 8.66 -13.66 9.32 -14 10 C-14.99 10 -15.98 10 -17 10 C-17 10.66 -17 11.32 -17 12 C-18.32 11.67 -19.64 11.34 -21 11 C-17.87907566 9.15966024 -14.75261783 7.32893744 -11.625 5.5 C-10.73554687 4.97535156 -9.84609375 4.45070313 -8.9296875 3.91015625 C-7.65351562 3.16572266 -7.65351562 3.16572266 -6.3515625 2.40625 C-5.56604004 1.94541016 -4.78051758 1.48457031 -3.97119141 1.00976562 C-2 0 -2 0 0 0 Z " fill="#30A721" transform="translate(89,265)"/>
<path d="M0 0 C0.33 0 0.66 0 1 0 C1.26554687 1.16917969 1.53109375 2.33835938 1.8046875 3.54296875 C2.16124851 5.09119417 2.51803102 6.63936859 2.875 8.1875 C3.04902344 8.95642578 3.22304687 9.72535156 3.40234375 10.51757812 C4.15587347 13.76891934 4.90623081 16.77538296 6.1953125 19.86328125 C7 22 7 22 6 25 C0.67891706 17.39845294 -0.52100958 9.06942607 0 0 Z " fill="#EBD649" transform="translate(93,218)"/>
<path d="M0 0 C0.66 0.33 1.32 0.66 2 1 C-1.63 4.63 -5.26 8.26 -9 12 C-9.33 10.68 -9.66 9.36 -10 8 C-7.432989 3.79010196 -4.56303404 1.78553506 0 0 Z " fill="#C33F24" transform="translate(302,96)"/>
<path d="M0 0 C5.34082361 -0.32044942 8.33706965 0.46579873 13 3 C14.3303125 3.2475 14.3303125 3.2475 15.6875 3.5 C18.44494789 4.09620495 19.1192681 4.96254044 21 7 C22.64605826 8.03357147 24.30963442 9.04060332 26 10 C22.92026629 10 21.47679132 9.51009914 18.69140625 8.3203125 C17.44713867 7.79244141 17.44713867 7.79244141 16.17773438 7.25390625 C15.31470703 6.88136719 14.45167969 6.50882812 13.5625 6.125 C12.70333984 5.76019531 11.84417969 5.39539063 10.95898438 5.01953125 C7.25213658 3.43786617 3.59134609 1.83156105 0 0 Z " fill="#B74731" transform="translate(229,95)"/>
<path d="M0 0 C4.82043259 0.60722504 8.54860666 2.65061441 12.75 4.9375 C13.43449219 5.29779297 14.11898438 5.65808594 14.82421875 6.02929688 C19.87138731 8.74277463 19.87138731 8.74277463 21 11 C19.54052295 10.93993922 18.08220728 10.8511311 16.625 10.75 C15.40683594 10.68039063 15.40683594 10.68039063 14.1640625 10.609375 C13.44992187 10.40828125 12.73578125 10.2071875 12 10 C10.90625 8.03125 10.90625 8.03125 10 6 C6.95800528 4.70768358 6.95800528 4.70768358 4 4 C4 3.34 4 2.68 4 2 C2.68 1.34 1.36 0.68 0 0 Z " fill="#BA3E29" transform="translate(273,37)"/>
<path d="M0 0 C0.66 0.99 1.32 1.98 2 3 C0.50260417 4.20442708 -0.99479167 5.40885417 -2.4921875 6.61328125 C-4.25292107 8.12270545 -4.25292107 8.12270545 -6 11 C-7.32 10.34 -8.64 9.68 -10 9 C-8.38405168 6.95880212 -6.7143618 4.95927063 -5 3 C-4.34 3 -3.68 3 -3 3 C-2.67 2.34 -2.34 1.68 -2 1 C-1.34 0.67 -0.68 0.34 0 0 Z " fill="#1470D8" transform="translate(285,269)"/>
<path d="M0 0 C0.66 0 1.32 0 2 0 C2.33 1.98 2.66 3.96 3 6 C3.66 6 4.32 6 5 6 C6.76462683 9.08809695 7 10.23312136 7 14 C7.66 14.33 8.32 14.66 9 15 C8.34 15.66 7.68 16.32 7 17 C5.82286337 14.9219935 4.65828026 12.83848217 3.5 10.75 C3.16613281 10.16347656 2.83226562 9.57695312 2.48828125 8.97265625 C0.63923194 5.61417893 0 3.93354216 0 0 Z " fill="#EED42F" transform="translate(36,270)"/>
<path d="M0 0 C1.134375 0.020625 2.26875 0.04125 3.4375 0.0625 C1.85712618 3.22324764 -1.32628948 3.60548175 -4.5 4.6875 C-5.14646484 4.91695313 -5.79292969 5.14640625 -6.45898438 5.3828125 C-11.27308873 7.0625 -11.27308873 7.0625 -13.5625 7.0625 C-13.5625 5.0625 -13.5625 5.0625 -11.5625 3.0625 C-9.23701993 2.36893577 -6.90369555 1.70100788 -4.5625 1.0625 C-3.5625 0.0625 -3.5625 0.0625 0 0 Z " fill="#19883E" transform="translate(267.5625,363.9375)"/>
<path d="M0 0 C1.65 0.33 3.3 0.66 5 1 C4.21625 1.9075 3.4325 2.815 2.625 3.75 C0.69947504 6.05190236 -0.82205741 8.21577207 -2 11 C-2.66 11 -3.32 11 -4 11 C-3.48964169 6.6109185 -2.47785723 3.66291938 0 0 Z " fill="#F2D62B" transform="translate(43,112)"/>
<path d="M0 0 C4.53847198 1.34927545 8.31932246 3.19159348 12.375 5.625 C13.43460938 6.25664062 14.49421875 6.88828125 15.5859375 7.5390625 C16.38257812 8.02117187 17.17921875 8.50328125 18 9 C17.34 10.98 16.68 12.96 16 15 C15.67 15 15.34 15 15 15 C14.98066406 14.08992187 14.96132812 13.17984375 14.94140625 12.2421875 C14.29068864 8.7043613 14.29068864 8.7043613 10.83984375 6.8828125 C9.54957686 6.2740712 8.2480761 5.68868865 6.9375 5.125 C6.27427734 4.81820312 5.61105469 4.51140625 4.92773438 4.1953125 C3.29434751 3.44324948 1.64827001 2.71885841 0 2 C0 1.34 0 0.68 0 0 Z " fill="#F8C434" transform="translate(88,136)"/>
<path d="M0 0 C1.98 0 3.96 0 6 0 C5.61328125 0.50789062 5.2265625 1.01578125 4.828125 1.5390625 C1.74572807 5.61331983 -1.21571155 9.71647931 -4 14 C-4.33 13.34 -4.66 12.68 -5 12 C-4.02194279 9.63636173 -2.74570194 7.59899152 -1.375 5.4375 C0.24566059 3.03094021 0.24566059 3.03094021 0 0 Z " fill="#D44C2F" transform="translate(112,129)"/>
<path d="M0 0 C7.09883934 1.14789743 13.41658619 3.11450374 20 6 C20 6.66 20 7.32 20 8 C19.01 8 18.02 8 17 8 C17 7.34 17 6.68 17 6 C14.69 6 12.38 6 10 6 C10 5.34 10 4.68 10 4 C8.68 4 7.36 4 6 4 C6 3.34 6 2.68 6 2 C3.03 1.505 3.03 1.505 0 1 C0 0.67 0 0.34 0 0 Z " fill="#BC3F28" transform="translate(246,27)"/>
<path d="M0 0 C0.33 0.66 0.66 1.32 1 2 C1.66 2.33 2.32 2.66 3 3 C1.42065361 3.98558449 -0.16365173 4.96322541 -1.75 5.9375 C-3.07257813 6.75541016 -3.07257813 6.75541016 -4.421875 7.58984375 C-6.68399917 8.82715712 -8.48566325 9.53590513 -11 10 C-11 9.34 -11 8.68 -11 8 C-9.68 7.67 -8.36 7.34 -7 7 C-7 6.34 -7 5.68 -7 5 C-6.34 5 -5.68 5 -5 5 C-5 4.34 -5 3.68 -5 3 C-3.35 3 -1.7 3 0 3 C0 2.01 0 1.02 0 0 Z " fill="#13803F" transform="translate(287,352)"/>
<path d="M0 0 C2.98052395 2.55473482 4.46340188 5.41460439 6 9 C6 10.32 6 11.64 6 13 C4.35 13 2.7 13 1 13 C0.375 11.1875 0.375 11.1875 0 9 C0.66 8.01 1.32 7.02 2 6 C1.19595537 2.8371515 1.19595537 2.8371515 0 0 Z " fill="#099442" transform="translate(281,342)"/>
<path d="M0 0 C-0.33 0.66 -0.66 1.32 -1 2 C-1.66 2 -2.32 2 -3 2 C-3.33 2.66 -3.66 3.32 -4 4 C-6.97 3.67 -9.94 3.34 -13 3 C-13.33 3.66 -13.66 4.32 -14 5 C-14.66 4.67 -15.32 4.34 -16 4 C-16 3.34 -16 2.68 -16 2 C-13.89829344 1.46932659 -11.79352402 0.95077143 -9.6875 0.4375 C-7.92986328 0.00244141 -7.92986328 0.00244141 -6.13671875 -0.44140625 C-3 -1 -3 -1 0 0 Z " fill="#0A953B" transform="translate(232,307)"/>
<path d="M0 0 C3.41021743 0.78697325 6.68885166 1.87119943 10 3 C9.67 3.99 9.34 4.98 9 6 C7.5608866 5.71640113 6.12374482 5.42278601 4.6875 5.125 C3.88699219 4.96257812 3.08648437 4.80015625 2.26171875 4.6328125 C0 4 0 4 -3 2 C-2.01 2 -1.02 2 0 2 C0 1.34 0 0.68 0 0 Z " fill="#C94029" transform="translate(219,89)"/>
<path d="M0 0 C0.66 0.33 1.32 0.66 2 1 C1.01 2.485 1.01 2.485 0 4 C-0.99 4 -1.98 4 -3 4 C-3 4.66 -3 5.32 -3 6 C-5.8125 7.125 -5.8125 7.125 -9 8 C-9.99 7.34 -10.98 6.68 -12 6 C-10.04669132 4.96958487 -8.08718472 3.9509107 -6.125 2.9375 C-5.03445312 2.36902344 -3.94390625 1.80054688 -2.8203125 1.21484375 C-1.42425781 0.61349609 -1.42425781 0.61349609 0 0 Z " fill="#DC4F32" transform="translate(124,37)"/>
<path d="M0 0 C3.67882073 3.28466137 5.75150101 6.66360908 8 11 C8 11.66 8 12.32 8 13 C6.68 12.67 5.36 12.34 4 12 C4 11.01 4 10.02 4 9 C3.01 8.67 2.02 8.34 1 8 C0.67 5.36 0.34 2.72 0 0 Z " fill="#0A9545" transform="translate(272,327)"/>
<path d="M0 0 C3.13485956 1.56742978 3.81812379 4.66101987 5.125 7.75 C5.40214844 8.37132812 5.67929687 8.99265625 5.96484375 9.6328125 C7.50229298 13.22271859 8.34313125 16.09128752 8 20 C5.08380209 16.59634379 3.7761973 13.08587691 2.3125 8.875 C1.87550781 7.63492187 1.43851563 6.39484375 0.98828125 5.1171875 C0 2 0 2 0 0 Z " fill="#EBD34F" transform="translate(28,252)"/>
<path d="M0 0 C3.37489934 1.49823907 5.91516657 3.44634427 8.6875 5.875 C9.47511719 6.55304687 10.26273437 7.23109375 11.07421875 7.9296875 C13.03844636 10.04133179 13.62774568 11.18600975 14 14 C13.34 14 12.68 14 12 14 C12 13.34 12 12.68 12 12 C11.01 11.67 10.02 11.34 9 11 C8.525625 10.195625 8.05125 9.39125 7.5625 8.5625 C5.83972436 5.73714796 4.86420739 5.3859068 2 4 C0.75 1.875 0.75 1.875 0 0 Z " fill="#BC3E27" transform="translate(307,57)"/>
<path d="M0 0 C0.33 0.66 0.66 1.32 1 2 C0.09239638 4.59732225 -0.87067892 7.09450975 -1.9375 9.625 C-2.22818359 10.33140625 -2.51886719 11.0378125 -2.81835938 11.765625 C-3.53867488 13.51327573 -4.26845694 15.25701915 -5 17 C-5.33 17 -5.66 17 -6 17 C-6.43715381 11.46271835 -5.308606 6.04473164 -3 1 C-2.01 0.67 -1.02 0.34 0 0 Z " fill="#F0D440" transform="translate(102,151)"/>
<path d="M0 0 C0.66 0 1.32 0 2 0 C2 0.66 2 1.32 2 2 C3.03125 2.12375 4.0625 2.2475 5.125 2.375 C8.62116846 2.93889814 11.68397627 3.78682059 15 5 C15 5.66 15 6.32 15 7 C9.88634986 5.9318153 4.92772031 4.76892524 0 3 C0 2.01 0 1.02 0 0 Z " fill="#26A556" transform="translate(135,365)"/>
<path d="M0 0 C0 4.0464757 -1.19996891 5.12817324 -4 8 C-6.32693154 9.35780861 -8.4107964 10.13693213 -11 11 C-11.66 10.67 -12.32 10.34 -13 10 C-12.22914063 9.44570313 -11.45828125 8.89140625 -10.6640625 8.3203125 C-9.66117187 7.59585937 -8.65828125 6.87140625 -7.625 6.125 C-6.62726563 5.40570313 -5.62953125 4.68640625 -4.6015625 3.9453125 C-2.00530106 2.1005342 -2.00530106 2.1005342 0 0 Z " fill="#1D72BE" transform="translate(270,282)"/>
<path d="M0 0 C4.46182436 1.31074365 7.99618757 3.07066011 11.875 5.625 C12.84179688 6.25664062 13.80859375 6.88828125 14.8046875 7.5390625 C15.52914062 8.02117187 16.25359375 8.50328125 17 9 C16.01 9.495 16.01 9.495 15 10 C12.28515625 8.92578125 12.28515625 8.92578125 9.0625 7.3125 C8.00160156 6.79300781 6.94070312 6.27351562 5.84765625 5.73828125 C3.08446692 4.05156074 1.69668407 2.71351216 0 0 Z " fill="#FEC42F" transform="translate(71,126)"/>
<path d="M0 0 C1.32 0 2.64 0 4 0 C4 3 4 3 1.5 5.6875 C0.675 6.450625 -0.15 7.21375 -1 8 C-1 7.01 -1 6.02 -1 5 C-1.66 4.67 -2.32 4.34 -3 4 C-1.75 2 -1.75 2 0 0 Z " fill="#1373CD" transform="translate(343,301)"/>
<path d="M0 0 C3.85645121 -0.22036864 6.49223216 0.39644899 10 2 C10 2.66 10 3.32 10 4 C11.65 4.33 13.3 4.66 15 5 C14.34 5.66 13.68 6.32 13 7 C8.71 5.02 4.42 3.04 0 1 C0 0.67 0 0.34 0 0 Z " fill="#25A053" transform="translate(118,359)"/>
<path d="M0 0 C0.66 0.33 1.32 0.66 2 1 C-0.89217759 5.69978858 -0.89217759 5.69978858 -4.046875 6.5546875 C-6.02330745 6.78597215 -8.01256369 6.90062818 -10 7 C-7.20283196 3.70921407 -3.80471422 1.93694542 0 0 Z " fill="#2DA825" transform="translate(66,277)"/>
<path d="M0 0 C0.99 0.33 1.98 0.66 3 1 C3.1875 3.875 3.1875 3.875 3 7 C2.01 7.66 1.02 8.32 0 9 C-0.66 8.67 -1.32 8.34 -2 8 C-2 6.68 -2 5.36 -2 4 C-1.34 3.67 -0.68 3.34 0 3 C0 2.01 0 1.02 0 0 Z " fill="#FAD111" transform="translate(100,144)"/>
<path d="M0 0 C2.475 0.495 2.475 0.495 5 1 C5 1.66 5 2.32 5 3 C6.65 3.33 8.3 3.66 10 4 C10 4.66 10 5.32 10 6 C10.66 6 11.32 6 12 6 C12.33 6.99 12.66 7.98 13 9 C7.97290493 7.42903279 3.97133531 4.38006951 0 1 C0 0.67 0 0.34 0 0 Z " fill="#25A151" transform="translate(90,341)"/>
<path d="M0 0 C1.32 0.66 2.64 1.32 4 2 C4 3.32 4 4.64 4 6 C2.35 6 0.7 6 -1 6 C-1 5.34 -1 4.68 -1 4 C-1.66 3.67 -2.32 3.34 -3 3 C-2.01 2.01 -1.02 1.02 0 0 Z " fill="#0EB147" transform="translate(84,329)"/>
<path d="M0 0 C2.84550012 0.66010476 5.52325999 1.51724966 8.25 2.5625 C8.95640625 2.83191406 9.6628125 3.10132813 10.390625 3.37890625 C10.92171875 3.58386719 11.4528125 3.78882813 12 4 C12 4.99 12 5.98 12 7 C7.69235185 5.43358249 3.93828536 3.31663844 0 1 C0 0.67 0 0.34 0 0 Z " fill="#1DA04E" transform="translate(106,352)"/>
<path d="M0 0 C0 0.66 0 1.32 0 2 C-1.32 2.33 -2.64 2.66 -4 3 C-4 3.66 -4 4.32 -4 5 C-4.99 5.33 -5.98 5.66 -7 6 C-8.20882096 8.00016466 -8.20882096 8.00016466 -9 10 C-9.33 8.35 -9.66 6.7 -10 5 C-8.71186658 4.16121545 -7.41936744 3.32913217 -6.125 2.5 C-5.40570313 2.0359375 -4.68640625 1.571875 -3.9453125 1.09375 C-2 0 -2 0 0 0 Z " fill="#2FA121" transform="translate(56,284)"/>
<path d="M0 0 C-1.04800781 0.61488281 -1.04800781 0.61488281 -2.1171875 1.2421875 C-3.02726562 1.78101563 -3.93734375 2.31984375 -4.875 2.875 C-5.77992187 3.40867187 -6.68484375 3.94234375 -7.6171875 4.4921875 C-10.06603282 5.91975352 -10.06603282 5.91975352 -12 8 C-12.33 6.68 -12.66 5.36 -13 4 C-12.360625 3.87625 -11.72125 3.7525 -11.0625 3.625 C-10.381875 3.41875 -9.70125 3.2125 -9 3 C-8.67 2.34 -8.34 1.68 -8 1 C-3.6 -1.2 -3.6 -1.2 0 0 Z " fill="#C7E23B" transform="translate(57,283)"/>
<path d="M0 0 C0.99 0.33 1.98 0.66 3 1 C2.67 1.66 2.34 2.32 2 3 C0.68 3 -0.64 3 -2 3 C-2.33 3.99 -2.66 4.98 -3 6 C-4.32 6 -5.64 6 -7 6 C-5.25 2.125 -5.25 2.125 -3 1 C-2.01 1.33 -1.02 1.66 0 2 C0 1.34 0 0.68 0 0 Z " fill="#F2D60A" transform="translate(51,281)"/>
<path d="M0 0 C0.99 0 1.98 0 3 0 C2.34580901 5.06998019 0.1453591 9.41990777 -2 14 C-3.23701372 10.28895884 -2.42126979 9.51137242 -1 6 C-0.96213099 4.33376361 -0.95372155 2.66602403 -1 1 C-0.67 0.67 -0.34 0.34 0 0 Z " fill="#2071BD" transform="translate(364,265)"/>
<path d="M0 0 C2.74792483 3.40219265 6 7.48464588 6 12 C5.01 12 4.02 12 3 12 C2.49166409 10.75336669 1.99368855 9.50250613 1.5 8.25 C1.2215625 7.55390625 0.943125 6.8578125 0.65625 6.140625 C0 4 0 4 0 0 Z " fill="#E0D73D" transform="translate(100,243)"/>
<path d="M0 0 C1.9375 0.1875 1.9375 0.1875 4 1 C5.1875 2.9375 5.1875 2.9375 6 5 C6.33 5.66 6.66 6.32 7 7 C1.33846154 5.52307692 1.33846154 5.52307692 -0.375 2.875 C-0.58125 2.25625 -0.7875 1.6375 -1 1 C-0.67 0.67 -0.34 0.34 0 0 Z " fill="#EA5115" transform="translate(87,131)"/>
<path d="M0 0 C-3.1254959 2.64465038 -6.08788267 3.84414715 -10 5 C-10 3.68 -10 2.36 -10 1 C-6.78548731 -0.60725635 -3.56387464 -0.05748185 0 0 Z " fill="#D6512A" transform="translate(156,100)"/>
<path d="M0 0 C0.33 0.99 0.66 1.98 1 3 C-0.98 3.99 -0.98 3.99 -3 5 C-3 5.66 -3 6.32 -3 7 C-4.98 7.99 -4.98 7.99 -7 9 C-5.44499019 5.18315774 -2.96404505 2.80804268 0 0 Z " fill="#1670C7" transform="translate(290,262)"/>
<path d="M0 0 C1.20284062 3.98655749 0.61262471 6.12970069 -1 10 C-2.625 12.375 -2.625 12.375 -4 14 C-3.36843005 8.94744036 -1.86540627 4.70406799 0 0 Z " fill="#F0D956" transform="translate(33,132)"/>
<path d="M0 0 C4.16138263 -0.08159574 7.9472484 0.01751476 12 1 C7.78915963 3.80722691 5.88445782 2.94537893 1 2 C0.67 1.34 0.34 0.68 0 0 Z " fill="#BB412E" transform="translate(270,116)"/>
<path d="M0 0 C2.475 0.495 2.475 0.495 5 1 C5 1.99 5 2.98 5 4 C5.99 4 6.98 4 8 4 C8.33 4.99 8.66 5.98 9 7 C5.56072421 5.7580393 2.74792181 4.44259716 0 2 C0 1.34 0 0.68 0 0 Z " fill="#BD412F" transform="translate(257,106)"/>
<path d="M0 0 C0.66 0 1.32 0 2 0 C5.0900669 3.93281242 6.52583422 7.02125936 7 12 C3.71534104 9.20803989 1.98678042 5.76803183 0 2 C0 1.34 0 0.68 0 0 Z " fill="#17939C" transform="translate(281,340)"/>
<path d="M0 0 C6.875 3.75 6.875 3.75 8 6 C6.02 6 4.04 6 2 6 C0 2.25 0 2.25 0 0 Z " fill="#1EA34E" transform="translate(128,282)"/>
<path d="M0 0 C3.35498935 1.38827146 5.15050455 2.85585774 7 6 C7 7.32 7 8.64 7 10 C6.34 10 5.68 10 5 10 C5 8.35 5 6.7 5 5 C4.360625 4.731875 3.72125 4.46375 3.0625 4.1875 C1 3 1 3 0 0 Z " fill="#1D70C0" transform="translate(370,170)"/>
<path d="M0 0 C-1.76641683 0.6987693 -3.53832664 1.38366583 -5.3125 2.0625 C-6.79169922 2.63677734 -6.79169922 2.63677734 -8.30078125 3.22265625 C-11 4 -11 4 -14 3 C-13 1 -13 1 -11.07421875 0.33203125 C-10.28660156 0.16058594 -9.49898437 -0.01085937 -8.6875 -0.1875 C-7.90761719 -0.36667969 -7.12773437 -0.54585938 -6.32421875 -0.73046875 C-3.90795241 -1.01067443 -2.29757048 -0.74132137 0 0 Z " fill="#C94F35" transform="translate(170,96)"/>
<path d="M0 0 C1.32 0.33 2.64 0.66 4 1 C4.33 3.64 4.66 6.28 5 9 C0.57142857 3.85714286 0.57142857 3.85714286 0 0 Z " fill="#178FB5" transform="translate(276,331)"/>
<path d="M0 0 C4.95 1.98 4.95 1.98 10 4 C8.02 4.99 8.02 4.99 6 6 C3.96166576 4.7260411 1.96147874 3.38938077 0 2 C0 1.34 0 0.68 0 0 Z " fill="#1B9E49" transform="translate(153,298)"/>
<path d="M0 0 C0.33 0.99 0.66 1.98 1 3 C0.01 3.33 -0.98 3.66 -2 4 C-2.33 4.66 -2.66 5.32 -3 6 C-4.32 5.34 -5.64 4.68 -7 4 C-3.375 0 -3.375 0 0 0 Z " fill="#26A73C" transform="translate(107,255)"/>
<path d="M0 0 C1.41750563 0.11509661 2.83401169 0.24253658 4.25 0.375 C5.03890625 0.44460938 5.8278125 0.51421875 6.640625 0.5859375 C9.085877 1.01507113 10.84836903 1.78600638 13 3 C11.20841511 3.02696365 9.41671527 3.04637917 7.625 3.0625 C6.62726563 3.07410156 5.62953125 3.08570313 4.6015625 3.09765625 C2 3 2 3 0 2 C0 1.34 0 0.68 0 0 Z " fill="#1C9747" transform="translate(170,305)"/>
<path d="M0 0 C0.33 0.66 0.66 1.32 1 2 C-0.98 4.97 -0.98 4.97 -3 8 C-3.93423645 4.98968256 -4.04449911 4.13349732 -3 1 C-2.01 0.67 -1.02 0.34 0 0 Z " fill="#1B6DC0" transform="translate(352,293)"/>
<path d="M0 0 C0 0.66 0 1.32 0 2 C-0.61875 2.0825 -1.2375 2.165 -1.875 2.25 C-4.18437567 2.81258459 -4.18437567 2.81258459 -5.25 5.0625 C-5.4975 5.701875 -5.745 6.34125 -6 7 C-6.66 7 -7.32 7 -8 7 C-6.4365884 2.43002763 -5.27390657 0 0 0 Z " fill="#1C72B5" transform="translate(217,169)"/>
<path d="M0 0 C2.375 0.1875 2.375 0.1875 5 1 C6.3125 3.5625 6.3125 3.5625 7 6 C1.125 2.25 1.125 2.25 0 0 Z " fill="#219F4A" transform="translate(83,335)"/>
<path d="M0 0 C2.475 0.99 2.475 0.99 5 2 C4.34 3.32 3.68 4.64 3 6 C2.34 6 1.68 6 1 6 C0.67 4.02 0.34 2.04 0 0 Z " fill="#1576D2" transform="translate(320,325)"/>
<path d="M0 0 C1.98 0.66 3.96 1.32 6 2 C6 2.99 6 3.98 6 5 C5.01 5.33 4.02 5.66 3 6 C3 5.01 3 4.02 3 3 C2.01 2.67 1.02 2.34 0 2 C0 1.34 0 0.68 0 0 Z " fill="#0FB148" transform="translate(64,313)"/>
<path d="M0 0 C1.12377697 3.30435084 0.89554742 5.0506862 -0.4375 8.25 C-0.72496094 8.95640625 -1.01242187 9.6628125 -1.30859375 10.390625 C-1.53675781 10.92171875 -1.76492188 11.4528125 -2 12 C-3.41128754 7.40834617 -2.11300128 4.22600255 0 0 Z " fill="#1A6DBB" transform="translate(370,253)"/>
<path d="M0 0 C0.66 0 1.32 0 2 0 C1.45276317 3.37462715 0.9451 5.08235 -1 8 C-1.66 8 -2.32 8 -3 8 C-2.67 6.35 -2.34 4.7 -2 3 C-1.34 3 -0.68 3 0 3 C0 2.01 0 1.02 0 0 Z " fill="#1872CE" transform="translate(302,238)"/>
<path d="M0 0 C0.65234375 1.796875 0.65234375 1.796875 1 4 C-0.36489377 6.33370072 -2.1419038 8.00594554 -4 10 C-4.33 9.34 -4.66 8.68 -5 8 C-4.00390625 6.0546875 -4.00390625 6.0546875 -2.5625 3.875 C-2.08941406 3.15054688 -1.61632813 2.42609375 -1.12890625 1.6796875 C-0.75636719 1.12539062 -0.38382813 0.57109375 0 0 Z " fill="#C95635" transform="translate(50,101)"/>
<path d="M0 0 C-2.8125 2.0625 -2.8125 2.0625 -6 4 C-6.99 3.67 -7.98 3.34 -9 3 C-7.01532024 -0.96935951 -3.9567243 -1.41311582 0 0 Z " fill="#EA4B29" transform="translate(144,32)"/>
<path d="M0 0 C0.99 0.33 1.98 0.66 3 1 C2.67 2.65 2.34 4.3 2 6 C1.01 5.34 0.02 4.68 -1 4 C-0.67 2.68 -0.34 1.36 0 0 Z " fill="#0C7BF1" transform="translate(212,229)"/>
<path d="M0 0 C2.125 0.375 2.125 0.375 4 1 C2.71937515 2.7074998 1.38232443 4.37373596 0 6 C-0.66 6 -1.32 6 -2 6 C-2 2 -2 2 0 0 Z " fill="#D55136" transform="translate(120,122)"/>
</svg>
